G04 #@! TF.GenerationSoftware,KiCad,Pcbnew,(5.1.2)-2*
G04 #@! TF.CreationDate,2019-08-06T13:22:13-07:00*
G04 #@! TF.ProjectId,first-keyboard,66697273-742d-46b6-9579-626f6172642e,rev?*
G04 #@! TF.SameCoordinates,Original*
G04 #@! TF.FileFunction,Soldermask,Top*
G04 #@! TF.FilePolarity,Negative*
%FSLAX46Y46*%
G04 Gerber Fmt 4.6, Leading zero omitted, Abs format (unit mm)*
G04 Created by KiCad (PCBNEW (5.1.2)-2) date 2019-08-06 13:22:13*
%MOMM*%
%LPD*%
G04 APERTURE LIST*
%ADD10C,0.100000*%
G04 APERTURE END LIST*
D10*
G36*
X90281250Y-123564000D02*
G01*
X88979250Y-123564000D01*
X88979250Y-122562000D01*
X90281250Y-122562000D01*
X90281250Y-123564000D01*
X90281250Y-123564000D01*
G37*
G36*
X109331250Y-123564000D02*
G01*
X108029250Y-123564000D01*
X108029250Y-122562000D01*
X109331250Y-122562000D01*
X109331250Y-123564000D01*
X109331250Y-123564000D01*
G37*
G36*
X128381250Y-123564000D02*
G01*
X127079250Y-123564000D01*
X127079250Y-122562000D01*
X128381250Y-122562000D01*
X128381250Y-123564000D01*
X128381250Y-123564000D01*
G37*
G36*
X82289224Y-119509184D02*
G01*
X82507224Y-119599483D01*
X82661373Y-119663333D01*
X82996298Y-119887123D01*
X83281127Y-120171952D01*
X83504917Y-120506877D01*
X83537312Y-120585086D01*
X83659066Y-120879026D01*
X83737650Y-121274094D01*
X83737650Y-121676906D01*
X83659066Y-122071974D01*
X83608201Y-122194772D01*
X83504917Y-122444123D01*
X83281127Y-122779048D01*
X82996298Y-123063877D01*
X82661373Y-123287667D01*
X82507224Y-123351517D01*
X82289224Y-123441816D01*
X81894156Y-123520400D01*
X81491344Y-123520400D01*
X81096276Y-123441816D01*
X80878276Y-123351517D01*
X80724127Y-123287667D01*
X80389202Y-123063877D01*
X80104373Y-122779048D01*
X79880583Y-122444123D01*
X79777299Y-122194772D01*
X79726434Y-122071974D01*
X79647850Y-121676906D01*
X79647850Y-121274094D01*
X79726434Y-120879026D01*
X79848188Y-120585086D01*
X79880583Y-120506877D01*
X80104373Y-120171952D01*
X80389202Y-119887123D01*
X80724127Y-119663333D01*
X80878276Y-119599483D01*
X81096276Y-119509184D01*
X81491344Y-119430600D01*
X81894156Y-119430600D01*
X82289224Y-119509184D01*
X82289224Y-119509184D01*
G37*
G36*
X120389224Y-119509184D02*
G01*
X120607224Y-119599483D01*
X120761373Y-119663333D01*
X121096298Y-119887123D01*
X121381127Y-120171952D01*
X121604917Y-120506877D01*
X121637312Y-120585086D01*
X121759066Y-120879026D01*
X121837650Y-121274094D01*
X121837650Y-121676906D01*
X121759066Y-122071974D01*
X121708201Y-122194772D01*
X121604917Y-122444123D01*
X121381127Y-122779048D01*
X121096298Y-123063877D01*
X120761373Y-123287667D01*
X120607224Y-123351517D01*
X120389224Y-123441816D01*
X119994156Y-123520400D01*
X119591344Y-123520400D01*
X119196276Y-123441816D01*
X118978276Y-123351517D01*
X118824127Y-123287667D01*
X118489202Y-123063877D01*
X118204373Y-122779048D01*
X117980583Y-122444123D01*
X117877299Y-122194772D01*
X117826434Y-122071974D01*
X117747850Y-121676906D01*
X117747850Y-121274094D01*
X117826434Y-120879026D01*
X117948188Y-120585086D01*
X117980583Y-120506877D01*
X118204373Y-120171952D01*
X118489202Y-119887123D01*
X118824127Y-119663333D01*
X118978276Y-119599483D01*
X119196276Y-119509184D01*
X119591344Y-119430600D01*
X119994156Y-119430600D01*
X120389224Y-119509184D01*
X120389224Y-119509184D01*
G37*
G36*
X101339224Y-119509184D02*
G01*
X101557224Y-119599483D01*
X101711373Y-119663333D01*
X102046298Y-119887123D01*
X102331127Y-120171952D01*
X102554917Y-120506877D01*
X102587312Y-120585086D01*
X102709066Y-120879026D01*
X102787650Y-121274094D01*
X102787650Y-121676906D01*
X102709066Y-122071974D01*
X102658201Y-122194772D01*
X102554917Y-122444123D01*
X102331127Y-122779048D01*
X102046298Y-123063877D01*
X101711373Y-123287667D01*
X101557224Y-123351517D01*
X101339224Y-123441816D01*
X100944156Y-123520400D01*
X100541344Y-123520400D01*
X100146276Y-123441816D01*
X99928276Y-123351517D01*
X99774127Y-123287667D01*
X99439202Y-123063877D01*
X99154373Y-122779048D01*
X98930583Y-122444123D01*
X98827299Y-122194772D01*
X98776434Y-122071974D01*
X98697850Y-121676906D01*
X98697850Y-121274094D01*
X98776434Y-120879026D01*
X98898188Y-120585086D01*
X98930583Y-120506877D01*
X99154373Y-120171952D01*
X99439202Y-119887123D01*
X99774127Y-119663333D01*
X99928276Y-119599483D01*
X100146276Y-119509184D01*
X100541344Y-119430600D01*
X100944156Y-119430600D01*
X101339224Y-119509184D01*
X101339224Y-119509184D01*
G37*
G36*
X114982854Y-120585085D02*
G01*
X115151376Y-120654889D01*
X115303041Y-120756228D01*
X115432022Y-120885209D01*
X115533361Y-121036874D01*
X115603165Y-121205396D01*
X115638750Y-121384297D01*
X115638750Y-121566703D01*
X115603165Y-121745604D01*
X115533361Y-121914126D01*
X115432022Y-122065791D01*
X115303041Y-122194772D01*
X115151376Y-122296111D01*
X114982854Y-122365915D01*
X114803953Y-122401500D01*
X114621547Y-122401500D01*
X114442646Y-122365915D01*
X114274124Y-122296111D01*
X114122459Y-122194772D01*
X113993478Y-122065791D01*
X113892139Y-121914126D01*
X113822335Y-121745604D01*
X113786750Y-121566703D01*
X113786750Y-121384297D01*
X113822335Y-121205396D01*
X113892139Y-121036874D01*
X113993478Y-120885209D01*
X114122459Y-120756228D01*
X114274124Y-120654889D01*
X114442646Y-120585085D01*
X114621547Y-120549500D01*
X114803953Y-120549500D01*
X114982854Y-120585085D01*
X114982854Y-120585085D01*
G37*
G36*
X106092854Y-120585085D02*
G01*
X106261376Y-120654889D01*
X106413041Y-120756228D01*
X106542022Y-120885209D01*
X106643361Y-121036874D01*
X106713165Y-121205396D01*
X106748750Y-121384297D01*
X106748750Y-121566703D01*
X106713165Y-121745604D01*
X106643361Y-121914126D01*
X106542022Y-122065791D01*
X106413041Y-122194772D01*
X106261376Y-122296111D01*
X106092854Y-122365915D01*
X105913953Y-122401500D01*
X105731547Y-122401500D01*
X105552646Y-122365915D01*
X105384124Y-122296111D01*
X105232459Y-122194772D01*
X105103478Y-122065791D01*
X105002139Y-121914126D01*
X104932335Y-121745604D01*
X104896750Y-121566703D01*
X104896750Y-121384297D01*
X104932335Y-121205396D01*
X105002139Y-121036874D01*
X105103478Y-120885209D01*
X105232459Y-120756228D01*
X105384124Y-120654889D01*
X105552646Y-120585085D01*
X105731547Y-120549500D01*
X105913953Y-120549500D01*
X106092854Y-120585085D01*
X106092854Y-120585085D01*
G37*
G36*
X95932854Y-120585085D02*
G01*
X96101376Y-120654889D01*
X96253041Y-120756228D01*
X96382022Y-120885209D01*
X96483361Y-121036874D01*
X96553165Y-121205396D01*
X96588750Y-121384297D01*
X96588750Y-121566703D01*
X96553165Y-121745604D01*
X96483361Y-121914126D01*
X96382022Y-122065791D01*
X96253041Y-122194772D01*
X96101376Y-122296111D01*
X95932854Y-122365915D01*
X95753953Y-122401500D01*
X95571547Y-122401500D01*
X95392646Y-122365915D01*
X95224124Y-122296111D01*
X95072459Y-122194772D01*
X94943478Y-122065791D01*
X94842139Y-121914126D01*
X94772335Y-121745604D01*
X94736750Y-121566703D01*
X94736750Y-121384297D01*
X94772335Y-121205396D01*
X94842139Y-121036874D01*
X94943478Y-120885209D01*
X95072459Y-120756228D01*
X95224124Y-120654889D01*
X95392646Y-120585085D01*
X95571547Y-120549500D01*
X95753953Y-120549500D01*
X95932854Y-120585085D01*
X95932854Y-120585085D01*
G37*
G36*
X125142854Y-120585085D02*
G01*
X125311376Y-120654889D01*
X125463041Y-120756228D01*
X125592022Y-120885209D01*
X125693361Y-121036874D01*
X125763165Y-121205396D01*
X125798750Y-121384297D01*
X125798750Y-121566703D01*
X125763165Y-121745604D01*
X125693361Y-121914126D01*
X125592022Y-122065791D01*
X125463041Y-122194772D01*
X125311376Y-122296111D01*
X125142854Y-122365915D01*
X124963953Y-122401500D01*
X124781547Y-122401500D01*
X124602646Y-122365915D01*
X124434124Y-122296111D01*
X124282459Y-122194772D01*
X124153478Y-122065791D01*
X124052139Y-121914126D01*
X123982335Y-121745604D01*
X123946750Y-121566703D01*
X123946750Y-121384297D01*
X123982335Y-121205396D01*
X124052139Y-121036874D01*
X124153478Y-120885209D01*
X124282459Y-120756228D01*
X124434124Y-120654889D01*
X124602646Y-120585085D01*
X124781547Y-120549500D01*
X124963953Y-120549500D01*
X125142854Y-120585085D01*
X125142854Y-120585085D01*
G37*
G36*
X87042854Y-120585085D02*
G01*
X87211376Y-120654889D01*
X87363041Y-120756228D01*
X87492022Y-120885209D01*
X87593361Y-121036874D01*
X87663165Y-121205396D01*
X87698750Y-121384297D01*
X87698750Y-121566703D01*
X87663165Y-121745604D01*
X87593361Y-121914126D01*
X87492022Y-122065791D01*
X87363041Y-122194772D01*
X87211376Y-122296111D01*
X87042854Y-122365915D01*
X86863953Y-122401500D01*
X86681547Y-122401500D01*
X86502646Y-122365915D01*
X86334124Y-122296111D01*
X86182459Y-122194772D01*
X86053478Y-122065791D01*
X85952139Y-121914126D01*
X85882335Y-121745604D01*
X85846750Y-121566703D01*
X85846750Y-121384297D01*
X85882335Y-121205396D01*
X85952139Y-121036874D01*
X86053478Y-120885209D01*
X86182459Y-120756228D01*
X86334124Y-120654889D01*
X86502646Y-120585085D01*
X86681547Y-120549500D01*
X86863953Y-120549500D01*
X87042854Y-120585085D01*
X87042854Y-120585085D01*
G37*
G36*
X76882854Y-120585085D02*
G01*
X77051376Y-120654889D01*
X77203041Y-120756228D01*
X77332022Y-120885209D01*
X77433361Y-121036874D01*
X77503165Y-121205396D01*
X77538750Y-121384297D01*
X77538750Y-121566703D01*
X77503165Y-121745604D01*
X77433361Y-121914126D01*
X77332022Y-122065791D01*
X77203041Y-122194772D01*
X77051376Y-122296111D01*
X76882854Y-122365915D01*
X76703953Y-122401500D01*
X76521547Y-122401500D01*
X76342646Y-122365915D01*
X76174124Y-122296111D01*
X76022459Y-122194772D01*
X75893478Y-122065791D01*
X75792139Y-121914126D01*
X75722335Y-121745604D01*
X75686750Y-121566703D01*
X75686750Y-121384297D01*
X75722335Y-121205396D01*
X75792139Y-121036874D01*
X75893478Y-120885209D01*
X76022459Y-120756228D01*
X76174124Y-120654889D01*
X76342646Y-120585085D01*
X76521547Y-120549500D01*
X76703953Y-120549500D01*
X76882854Y-120585085D01*
X76882854Y-120585085D01*
G37*
G36*
X109331250Y-120264000D02*
G01*
X108029250Y-120264000D01*
X108029250Y-119262000D01*
X109331250Y-119262000D01*
X109331250Y-120264000D01*
X109331250Y-120264000D01*
G37*
G36*
X128381250Y-120264000D02*
G01*
X127079250Y-120264000D01*
X127079250Y-119262000D01*
X128381250Y-119262000D01*
X128381250Y-120264000D01*
X128381250Y-120264000D01*
G37*
G36*
X90281250Y-120264000D02*
G01*
X88979250Y-120264000D01*
X88979250Y-119262000D01*
X90281250Y-119262000D01*
X90281250Y-120264000D01*
X90281250Y-120264000D01*
G37*
G36*
X109331250Y-104514000D02*
G01*
X108029250Y-104514000D01*
X108029250Y-103512000D01*
X109331250Y-103512000D01*
X109331250Y-104514000D01*
X109331250Y-104514000D01*
G37*
G36*
X128381250Y-104514000D02*
G01*
X127079250Y-104514000D01*
X127079250Y-103512000D01*
X128381250Y-103512000D01*
X128381250Y-104514000D01*
X128381250Y-104514000D01*
G37*
G36*
X90281250Y-104514000D02*
G01*
X88979250Y-104514000D01*
X88979250Y-103512000D01*
X90281250Y-103512000D01*
X90281250Y-104514000D01*
X90281250Y-104514000D01*
G37*
G36*
X120389224Y-100459184D02*
G01*
X120607224Y-100549483D01*
X120761373Y-100613333D01*
X121096298Y-100837123D01*
X121381127Y-101121952D01*
X121604917Y-101456877D01*
X121637312Y-101535086D01*
X121759066Y-101829026D01*
X121837650Y-102224094D01*
X121837650Y-102626906D01*
X121759066Y-103021974D01*
X121708201Y-103144772D01*
X121604917Y-103394123D01*
X121381127Y-103729048D01*
X121096298Y-104013877D01*
X120761373Y-104237667D01*
X120607224Y-104301517D01*
X120389224Y-104391816D01*
X119994156Y-104470400D01*
X119591344Y-104470400D01*
X119196276Y-104391816D01*
X118978276Y-104301517D01*
X118824127Y-104237667D01*
X118489202Y-104013877D01*
X118204373Y-103729048D01*
X117980583Y-103394123D01*
X117877299Y-103144772D01*
X117826434Y-103021974D01*
X117747850Y-102626906D01*
X117747850Y-102224094D01*
X117826434Y-101829026D01*
X117948188Y-101535086D01*
X117980583Y-101456877D01*
X118204373Y-101121952D01*
X118489202Y-100837123D01*
X118824127Y-100613333D01*
X118978276Y-100549483D01*
X119196276Y-100459184D01*
X119591344Y-100380600D01*
X119994156Y-100380600D01*
X120389224Y-100459184D01*
X120389224Y-100459184D01*
G37*
G36*
X101339224Y-100459184D02*
G01*
X101557224Y-100549483D01*
X101711373Y-100613333D01*
X102046298Y-100837123D01*
X102331127Y-101121952D01*
X102554917Y-101456877D01*
X102587312Y-101535086D01*
X102709066Y-101829026D01*
X102787650Y-102224094D01*
X102787650Y-102626906D01*
X102709066Y-103021974D01*
X102658201Y-103144772D01*
X102554917Y-103394123D01*
X102331127Y-103729048D01*
X102046298Y-104013877D01*
X101711373Y-104237667D01*
X101557224Y-104301517D01*
X101339224Y-104391816D01*
X100944156Y-104470400D01*
X100541344Y-104470400D01*
X100146276Y-104391816D01*
X99928276Y-104301517D01*
X99774127Y-104237667D01*
X99439202Y-104013877D01*
X99154373Y-103729048D01*
X98930583Y-103394123D01*
X98827299Y-103144772D01*
X98776434Y-103021974D01*
X98697850Y-102626906D01*
X98697850Y-102224094D01*
X98776434Y-101829026D01*
X98898188Y-101535086D01*
X98930583Y-101456877D01*
X99154373Y-101121952D01*
X99439202Y-100837123D01*
X99774127Y-100613333D01*
X99928276Y-100549483D01*
X100146276Y-100459184D01*
X100541344Y-100380600D01*
X100944156Y-100380600D01*
X101339224Y-100459184D01*
X101339224Y-100459184D01*
G37*
G36*
X82289224Y-100459184D02*
G01*
X82507224Y-100549483D01*
X82661373Y-100613333D01*
X82996298Y-100837123D01*
X83281127Y-101121952D01*
X83504917Y-101456877D01*
X83537312Y-101535086D01*
X83659066Y-101829026D01*
X83737650Y-102224094D01*
X83737650Y-102626906D01*
X83659066Y-103021974D01*
X83608201Y-103144772D01*
X83504917Y-103394123D01*
X83281127Y-103729048D01*
X82996298Y-104013877D01*
X82661373Y-104237667D01*
X82507224Y-104301517D01*
X82289224Y-104391816D01*
X81894156Y-104470400D01*
X81491344Y-104470400D01*
X81096276Y-104391816D01*
X80878276Y-104301517D01*
X80724127Y-104237667D01*
X80389202Y-104013877D01*
X80104373Y-103729048D01*
X79880583Y-103394123D01*
X79777299Y-103144772D01*
X79726434Y-103021974D01*
X79647850Y-102626906D01*
X79647850Y-102224094D01*
X79726434Y-101829026D01*
X79848188Y-101535086D01*
X79880583Y-101456877D01*
X80104373Y-101121952D01*
X80389202Y-100837123D01*
X80724127Y-100613333D01*
X80878276Y-100549483D01*
X81096276Y-100459184D01*
X81491344Y-100380600D01*
X81894156Y-100380600D01*
X82289224Y-100459184D01*
X82289224Y-100459184D01*
G37*
G36*
X125142854Y-101535085D02*
G01*
X125311376Y-101604889D01*
X125463041Y-101706228D01*
X125592022Y-101835209D01*
X125693361Y-101986874D01*
X125763165Y-102155396D01*
X125798750Y-102334297D01*
X125798750Y-102516703D01*
X125763165Y-102695604D01*
X125693361Y-102864126D01*
X125592022Y-103015791D01*
X125463041Y-103144772D01*
X125311376Y-103246111D01*
X125142854Y-103315915D01*
X124963953Y-103351500D01*
X124781547Y-103351500D01*
X124602646Y-103315915D01*
X124434124Y-103246111D01*
X124282459Y-103144772D01*
X124153478Y-103015791D01*
X124052139Y-102864126D01*
X123982335Y-102695604D01*
X123946750Y-102516703D01*
X123946750Y-102334297D01*
X123982335Y-102155396D01*
X124052139Y-101986874D01*
X124153478Y-101835209D01*
X124282459Y-101706228D01*
X124434124Y-101604889D01*
X124602646Y-101535085D01*
X124781547Y-101499500D01*
X124963953Y-101499500D01*
X125142854Y-101535085D01*
X125142854Y-101535085D01*
G37*
G36*
X106092854Y-101535085D02*
G01*
X106261376Y-101604889D01*
X106413041Y-101706228D01*
X106542022Y-101835209D01*
X106643361Y-101986874D01*
X106713165Y-102155396D01*
X106748750Y-102334297D01*
X106748750Y-102516703D01*
X106713165Y-102695604D01*
X106643361Y-102864126D01*
X106542022Y-103015791D01*
X106413041Y-103144772D01*
X106261376Y-103246111D01*
X106092854Y-103315915D01*
X105913953Y-103351500D01*
X105731547Y-103351500D01*
X105552646Y-103315915D01*
X105384124Y-103246111D01*
X105232459Y-103144772D01*
X105103478Y-103015791D01*
X105002139Y-102864126D01*
X104932335Y-102695604D01*
X104896750Y-102516703D01*
X104896750Y-102334297D01*
X104932335Y-102155396D01*
X105002139Y-101986874D01*
X105103478Y-101835209D01*
X105232459Y-101706228D01*
X105384124Y-101604889D01*
X105552646Y-101535085D01*
X105731547Y-101499500D01*
X105913953Y-101499500D01*
X106092854Y-101535085D01*
X106092854Y-101535085D01*
G37*
G36*
X87042854Y-101535085D02*
G01*
X87211376Y-101604889D01*
X87363041Y-101706228D01*
X87492022Y-101835209D01*
X87593361Y-101986874D01*
X87663165Y-102155396D01*
X87698750Y-102334297D01*
X87698750Y-102516703D01*
X87663165Y-102695604D01*
X87593361Y-102864126D01*
X87492022Y-103015791D01*
X87363041Y-103144772D01*
X87211376Y-103246111D01*
X87042854Y-103315915D01*
X86863953Y-103351500D01*
X86681547Y-103351500D01*
X86502646Y-103315915D01*
X86334124Y-103246111D01*
X86182459Y-103144772D01*
X86053478Y-103015791D01*
X85952139Y-102864126D01*
X85882335Y-102695604D01*
X85846750Y-102516703D01*
X85846750Y-102334297D01*
X85882335Y-102155396D01*
X85952139Y-101986874D01*
X86053478Y-101835209D01*
X86182459Y-101706228D01*
X86334124Y-101604889D01*
X86502646Y-101535085D01*
X86681547Y-101499500D01*
X86863953Y-101499500D01*
X87042854Y-101535085D01*
X87042854Y-101535085D01*
G37*
G36*
X76882854Y-101535085D02*
G01*
X77051376Y-101604889D01*
X77203041Y-101706228D01*
X77332022Y-101835209D01*
X77433361Y-101986874D01*
X77503165Y-102155396D01*
X77538750Y-102334297D01*
X77538750Y-102516703D01*
X77503165Y-102695604D01*
X77433361Y-102864126D01*
X77332022Y-103015791D01*
X77203041Y-103144772D01*
X77051376Y-103246111D01*
X76882854Y-103315915D01*
X76703953Y-103351500D01*
X76521547Y-103351500D01*
X76342646Y-103315915D01*
X76174124Y-103246111D01*
X76022459Y-103144772D01*
X75893478Y-103015791D01*
X75792139Y-102864126D01*
X75722335Y-102695604D01*
X75686750Y-102516703D01*
X75686750Y-102334297D01*
X75722335Y-102155396D01*
X75792139Y-101986874D01*
X75893478Y-101835209D01*
X76022459Y-101706228D01*
X76174124Y-101604889D01*
X76342646Y-101535085D01*
X76521547Y-101499500D01*
X76703953Y-101499500D01*
X76882854Y-101535085D01*
X76882854Y-101535085D01*
G37*
G36*
X95932854Y-101535085D02*
G01*
X96101376Y-101604889D01*
X96253041Y-101706228D01*
X96382022Y-101835209D01*
X96483361Y-101986874D01*
X96553165Y-102155396D01*
X96588750Y-102334297D01*
X96588750Y-102516703D01*
X96553165Y-102695604D01*
X96483361Y-102864126D01*
X96382022Y-103015791D01*
X96253041Y-103144772D01*
X96101376Y-103246111D01*
X95932854Y-103315915D01*
X95753953Y-103351500D01*
X95571547Y-103351500D01*
X95392646Y-103315915D01*
X95224124Y-103246111D01*
X95072459Y-103144772D01*
X94943478Y-103015791D01*
X94842139Y-102864126D01*
X94772335Y-102695604D01*
X94736750Y-102516703D01*
X94736750Y-102334297D01*
X94772335Y-102155396D01*
X94842139Y-101986874D01*
X94943478Y-101835209D01*
X95072459Y-101706228D01*
X95224124Y-101604889D01*
X95392646Y-101535085D01*
X95571547Y-101499500D01*
X95753953Y-101499500D01*
X95932854Y-101535085D01*
X95932854Y-101535085D01*
G37*
G36*
X114982854Y-101535085D02*
G01*
X115151376Y-101604889D01*
X115303041Y-101706228D01*
X115432022Y-101835209D01*
X115533361Y-101986874D01*
X115603165Y-102155396D01*
X115638750Y-102334297D01*
X115638750Y-102516703D01*
X115603165Y-102695604D01*
X115533361Y-102864126D01*
X115432022Y-103015791D01*
X115303041Y-103144772D01*
X115151376Y-103246111D01*
X114982854Y-103315915D01*
X114803953Y-103351500D01*
X114621547Y-103351500D01*
X114442646Y-103315915D01*
X114274124Y-103246111D01*
X114122459Y-103144772D01*
X113993478Y-103015791D01*
X113892139Y-102864126D01*
X113822335Y-102695604D01*
X113786750Y-102516703D01*
X113786750Y-102334297D01*
X113822335Y-102155396D01*
X113892139Y-101986874D01*
X113993478Y-101835209D01*
X114122459Y-101706228D01*
X114274124Y-101604889D01*
X114442646Y-101535085D01*
X114621547Y-101499500D01*
X114803953Y-101499500D01*
X114982854Y-101535085D01*
X114982854Y-101535085D01*
G37*
G36*
X128381250Y-101214000D02*
G01*
X127079250Y-101214000D01*
X127079250Y-100212000D01*
X128381250Y-100212000D01*
X128381250Y-101214000D01*
X128381250Y-101214000D01*
G37*
G36*
X109331250Y-101214000D02*
G01*
X108029250Y-101214000D01*
X108029250Y-100212000D01*
X109331250Y-100212000D01*
X109331250Y-101214000D01*
X109331250Y-101214000D01*
G37*
G36*
X90281250Y-101214000D02*
G01*
X88979250Y-101214000D01*
X88979250Y-100212000D01*
X90281250Y-100212000D01*
X90281250Y-101214000D01*
X90281250Y-101214000D01*
G37*
G36*
X128381250Y-85464000D02*
G01*
X127079250Y-85464000D01*
X127079250Y-84462000D01*
X128381250Y-84462000D01*
X128381250Y-85464000D01*
X128381250Y-85464000D01*
G37*
G36*
X109331250Y-85464000D02*
G01*
X108029250Y-85464000D01*
X108029250Y-84462000D01*
X109331250Y-84462000D01*
X109331250Y-85464000D01*
X109331250Y-85464000D01*
G37*
G36*
X90281250Y-85464000D02*
G01*
X88979250Y-85464000D01*
X88979250Y-84462000D01*
X90281250Y-84462000D01*
X90281250Y-85464000D01*
X90281250Y-85464000D01*
G37*
G36*
X101339224Y-81409184D02*
G01*
X101557224Y-81499483D01*
X101711373Y-81563333D01*
X102046298Y-81787123D01*
X102331127Y-82071952D01*
X102554917Y-82406877D01*
X102587312Y-82485086D01*
X102709066Y-82779026D01*
X102787650Y-83174094D01*
X102787650Y-83576906D01*
X102709066Y-83971974D01*
X102658201Y-84094772D01*
X102554917Y-84344123D01*
X102331127Y-84679048D01*
X102046298Y-84963877D01*
X101711373Y-85187667D01*
X101557224Y-85251517D01*
X101339224Y-85341816D01*
X100944156Y-85420400D01*
X100541344Y-85420400D01*
X100146276Y-85341816D01*
X99928276Y-85251517D01*
X99774127Y-85187667D01*
X99439202Y-84963877D01*
X99154373Y-84679048D01*
X98930583Y-84344123D01*
X98827299Y-84094772D01*
X98776434Y-83971974D01*
X98697850Y-83576906D01*
X98697850Y-83174094D01*
X98776434Y-82779026D01*
X98898188Y-82485086D01*
X98930583Y-82406877D01*
X99154373Y-82071952D01*
X99439202Y-81787123D01*
X99774127Y-81563333D01*
X99928276Y-81499483D01*
X100146276Y-81409184D01*
X100541344Y-81330600D01*
X100944156Y-81330600D01*
X101339224Y-81409184D01*
X101339224Y-81409184D01*
G37*
G36*
X82289224Y-81409184D02*
G01*
X82507224Y-81499483D01*
X82661373Y-81563333D01*
X82996298Y-81787123D01*
X83281127Y-82071952D01*
X83504917Y-82406877D01*
X83537312Y-82485086D01*
X83659066Y-82779026D01*
X83737650Y-83174094D01*
X83737650Y-83576906D01*
X83659066Y-83971974D01*
X83608201Y-84094772D01*
X83504917Y-84344123D01*
X83281127Y-84679048D01*
X82996298Y-84963877D01*
X82661373Y-85187667D01*
X82507224Y-85251517D01*
X82289224Y-85341816D01*
X81894156Y-85420400D01*
X81491344Y-85420400D01*
X81096276Y-85341816D01*
X80878276Y-85251517D01*
X80724127Y-85187667D01*
X80389202Y-84963877D01*
X80104373Y-84679048D01*
X79880583Y-84344123D01*
X79777299Y-84094772D01*
X79726434Y-83971974D01*
X79647850Y-83576906D01*
X79647850Y-83174094D01*
X79726434Y-82779026D01*
X79848188Y-82485086D01*
X79880583Y-82406877D01*
X80104373Y-82071952D01*
X80389202Y-81787123D01*
X80724127Y-81563333D01*
X80878276Y-81499483D01*
X81096276Y-81409184D01*
X81491344Y-81330600D01*
X81894156Y-81330600D01*
X82289224Y-81409184D01*
X82289224Y-81409184D01*
G37*
G36*
X120389224Y-81409184D02*
G01*
X120607224Y-81499483D01*
X120761373Y-81563333D01*
X121096298Y-81787123D01*
X121381127Y-82071952D01*
X121604917Y-82406877D01*
X121637312Y-82485086D01*
X121759066Y-82779026D01*
X121837650Y-83174094D01*
X121837650Y-83576906D01*
X121759066Y-83971974D01*
X121708201Y-84094772D01*
X121604917Y-84344123D01*
X121381127Y-84679048D01*
X121096298Y-84963877D01*
X120761373Y-85187667D01*
X120607224Y-85251517D01*
X120389224Y-85341816D01*
X119994156Y-85420400D01*
X119591344Y-85420400D01*
X119196276Y-85341816D01*
X118978276Y-85251517D01*
X118824127Y-85187667D01*
X118489202Y-84963877D01*
X118204373Y-84679048D01*
X117980583Y-84344123D01*
X117877299Y-84094772D01*
X117826434Y-83971974D01*
X117747850Y-83576906D01*
X117747850Y-83174094D01*
X117826434Y-82779026D01*
X117948188Y-82485086D01*
X117980583Y-82406877D01*
X118204373Y-82071952D01*
X118489202Y-81787123D01*
X118824127Y-81563333D01*
X118978276Y-81499483D01*
X119196276Y-81409184D01*
X119591344Y-81330600D01*
X119994156Y-81330600D01*
X120389224Y-81409184D01*
X120389224Y-81409184D01*
G37*
G36*
X114982854Y-82485085D02*
G01*
X115151376Y-82554889D01*
X115303041Y-82656228D01*
X115432022Y-82785209D01*
X115533361Y-82936874D01*
X115603165Y-83105396D01*
X115638750Y-83284297D01*
X115638750Y-83466703D01*
X115603165Y-83645604D01*
X115533361Y-83814126D01*
X115432022Y-83965791D01*
X115303041Y-84094772D01*
X115151376Y-84196111D01*
X114982854Y-84265915D01*
X114803953Y-84301500D01*
X114621547Y-84301500D01*
X114442646Y-84265915D01*
X114274124Y-84196111D01*
X114122459Y-84094772D01*
X113993478Y-83965791D01*
X113892139Y-83814126D01*
X113822335Y-83645604D01*
X113786750Y-83466703D01*
X113786750Y-83284297D01*
X113822335Y-83105396D01*
X113892139Y-82936874D01*
X113993478Y-82785209D01*
X114122459Y-82656228D01*
X114274124Y-82554889D01*
X114442646Y-82485085D01*
X114621547Y-82449500D01*
X114803953Y-82449500D01*
X114982854Y-82485085D01*
X114982854Y-82485085D01*
G37*
G36*
X106092854Y-82485085D02*
G01*
X106261376Y-82554889D01*
X106413041Y-82656228D01*
X106542022Y-82785209D01*
X106643361Y-82936874D01*
X106713165Y-83105396D01*
X106748750Y-83284297D01*
X106748750Y-83466703D01*
X106713165Y-83645604D01*
X106643361Y-83814126D01*
X106542022Y-83965791D01*
X106413041Y-84094772D01*
X106261376Y-84196111D01*
X106092854Y-84265915D01*
X105913953Y-84301500D01*
X105731547Y-84301500D01*
X105552646Y-84265915D01*
X105384124Y-84196111D01*
X105232459Y-84094772D01*
X105103478Y-83965791D01*
X105002139Y-83814126D01*
X104932335Y-83645604D01*
X104896750Y-83466703D01*
X104896750Y-83284297D01*
X104932335Y-83105396D01*
X105002139Y-82936874D01*
X105103478Y-82785209D01*
X105232459Y-82656228D01*
X105384124Y-82554889D01*
X105552646Y-82485085D01*
X105731547Y-82449500D01*
X105913953Y-82449500D01*
X106092854Y-82485085D01*
X106092854Y-82485085D01*
G37*
G36*
X76882854Y-82485085D02*
G01*
X77051376Y-82554889D01*
X77203041Y-82656228D01*
X77332022Y-82785209D01*
X77433361Y-82936874D01*
X77503165Y-83105396D01*
X77538750Y-83284297D01*
X77538750Y-83466703D01*
X77503165Y-83645604D01*
X77433361Y-83814126D01*
X77332022Y-83965791D01*
X77203041Y-84094772D01*
X77051376Y-84196111D01*
X76882854Y-84265915D01*
X76703953Y-84301500D01*
X76521547Y-84301500D01*
X76342646Y-84265915D01*
X76174124Y-84196111D01*
X76022459Y-84094772D01*
X75893478Y-83965791D01*
X75792139Y-83814126D01*
X75722335Y-83645604D01*
X75686750Y-83466703D01*
X75686750Y-83284297D01*
X75722335Y-83105396D01*
X75792139Y-82936874D01*
X75893478Y-82785209D01*
X76022459Y-82656228D01*
X76174124Y-82554889D01*
X76342646Y-82485085D01*
X76521547Y-82449500D01*
X76703953Y-82449500D01*
X76882854Y-82485085D01*
X76882854Y-82485085D01*
G37*
G36*
X87042854Y-82485085D02*
G01*
X87211376Y-82554889D01*
X87363041Y-82656228D01*
X87492022Y-82785209D01*
X87593361Y-82936874D01*
X87663165Y-83105396D01*
X87698750Y-83284297D01*
X87698750Y-83466703D01*
X87663165Y-83645604D01*
X87593361Y-83814126D01*
X87492022Y-83965791D01*
X87363041Y-84094772D01*
X87211376Y-84196111D01*
X87042854Y-84265915D01*
X86863953Y-84301500D01*
X86681547Y-84301500D01*
X86502646Y-84265915D01*
X86334124Y-84196111D01*
X86182459Y-84094772D01*
X86053478Y-83965791D01*
X85952139Y-83814126D01*
X85882335Y-83645604D01*
X85846750Y-83466703D01*
X85846750Y-83284297D01*
X85882335Y-83105396D01*
X85952139Y-82936874D01*
X86053478Y-82785209D01*
X86182459Y-82656228D01*
X86334124Y-82554889D01*
X86502646Y-82485085D01*
X86681547Y-82449500D01*
X86863953Y-82449500D01*
X87042854Y-82485085D01*
X87042854Y-82485085D01*
G37*
G36*
X95932854Y-82485085D02*
G01*
X96101376Y-82554889D01*
X96253041Y-82656228D01*
X96382022Y-82785209D01*
X96483361Y-82936874D01*
X96553165Y-83105396D01*
X96588750Y-83284297D01*
X96588750Y-83466703D01*
X96553165Y-83645604D01*
X96483361Y-83814126D01*
X96382022Y-83965791D01*
X96253041Y-84094772D01*
X96101376Y-84196111D01*
X95932854Y-84265915D01*
X95753953Y-84301500D01*
X95571547Y-84301500D01*
X95392646Y-84265915D01*
X95224124Y-84196111D01*
X95072459Y-84094772D01*
X94943478Y-83965791D01*
X94842139Y-83814126D01*
X94772335Y-83645604D01*
X94736750Y-83466703D01*
X94736750Y-83284297D01*
X94772335Y-83105396D01*
X94842139Y-82936874D01*
X94943478Y-82785209D01*
X95072459Y-82656228D01*
X95224124Y-82554889D01*
X95392646Y-82485085D01*
X95571547Y-82449500D01*
X95753953Y-82449500D01*
X95932854Y-82485085D01*
X95932854Y-82485085D01*
G37*
G36*
X125142854Y-82485085D02*
G01*
X125311376Y-82554889D01*
X125463041Y-82656228D01*
X125592022Y-82785209D01*
X125693361Y-82936874D01*
X125763165Y-83105396D01*
X125798750Y-83284297D01*
X125798750Y-83466703D01*
X125763165Y-83645604D01*
X125693361Y-83814126D01*
X125592022Y-83965791D01*
X125463041Y-84094772D01*
X125311376Y-84196111D01*
X125142854Y-84265915D01*
X124963953Y-84301500D01*
X124781547Y-84301500D01*
X124602646Y-84265915D01*
X124434124Y-84196111D01*
X124282459Y-84094772D01*
X124153478Y-83965791D01*
X124052139Y-83814126D01*
X123982335Y-83645604D01*
X123946750Y-83466703D01*
X123946750Y-83284297D01*
X123982335Y-83105396D01*
X124052139Y-82936874D01*
X124153478Y-82785209D01*
X124282459Y-82656228D01*
X124434124Y-82554889D01*
X124602646Y-82485085D01*
X124781547Y-82449500D01*
X124963953Y-82449500D01*
X125142854Y-82485085D01*
X125142854Y-82485085D01*
G37*
G36*
X90281250Y-82164000D02*
G01*
X88979250Y-82164000D01*
X88979250Y-81162000D01*
X90281250Y-81162000D01*
X90281250Y-82164000D01*
X90281250Y-82164000D01*
G37*
G36*
X128381250Y-82164000D02*
G01*
X127079250Y-82164000D01*
X127079250Y-81162000D01*
X128381250Y-81162000D01*
X128381250Y-82164000D01*
X128381250Y-82164000D01*
G37*
G36*
X109331250Y-82164000D02*
G01*
X108029250Y-82164000D01*
X108029250Y-81162000D01*
X109331250Y-81162000D01*
X109331250Y-82164000D01*
X109331250Y-82164000D01*
G37*
G36*
X98718750Y-71620250D02*
G01*
X90066750Y-71620250D01*
X90066750Y-70018250D01*
X98718750Y-70018250D01*
X98718750Y-71620250D01*
X98718750Y-71620250D01*
G37*
G36*
X111020718Y-69929065D02*
G01*
X111059388Y-69940796D01*
X111095027Y-69959846D01*
X111126267Y-69985483D01*
X111151904Y-70016723D01*
X111170954Y-70052362D01*
X111182685Y-70091032D01*
X111187250Y-70137388D01*
X111187250Y-71213612D01*
X111182685Y-71259968D01*
X111170954Y-71298638D01*
X111151904Y-71334277D01*
X111126267Y-71365517D01*
X111095027Y-71391154D01*
X111059388Y-71410204D01*
X111020718Y-71421935D01*
X110974362Y-71426500D01*
X110323138Y-71426500D01*
X110276782Y-71421935D01*
X110238112Y-71410204D01*
X110202473Y-71391154D01*
X110171233Y-71365517D01*
X110145596Y-71334277D01*
X110126546Y-71298638D01*
X110114815Y-71259968D01*
X110110250Y-71213612D01*
X110110250Y-70137388D01*
X110114815Y-70091032D01*
X110126546Y-70052362D01*
X110145596Y-70016723D01*
X110171233Y-69985483D01*
X110202473Y-69959846D01*
X110238112Y-69940796D01*
X110276782Y-69929065D01*
X110323138Y-69924500D01*
X110974362Y-69924500D01*
X111020718Y-69929065D01*
X111020718Y-69929065D01*
G37*
G36*
X109145718Y-69929065D02*
G01*
X109184388Y-69940796D01*
X109220027Y-69959846D01*
X109251267Y-69985483D01*
X109276904Y-70016723D01*
X109295954Y-70052362D01*
X109307685Y-70091032D01*
X109312250Y-70137388D01*
X109312250Y-71213612D01*
X109307685Y-71259968D01*
X109295954Y-71298638D01*
X109276904Y-71334277D01*
X109251267Y-71365517D01*
X109220027Y-71391154D01*
X109184388Y-71410204D01*
X109145718Y-71421935D01*
X109099362Y-71426500D01*
X108448138Y-71426500D01*
X108401782Y-71421935D01*
X108363112Y-71410204D01*
X108327473Y-71391154D01*
X108296233Y-71365517D01*
X108270596Y-71334277D01*
X108251546Y-71298638D01*
X108239815Y-71259968D01*
X108235250Y-71213612D01*
X108235250Y-70137388D01*
X108239815Y-70091032D01*
X108251546Y-70052362D01*
X108270596Y-70016723D01*
X108296233Y-69985483D01*
X108327473Y-69959846D01*
X108363112Y-69940796D01*
X108401782Y-69929065D01*
X108448138Y-69924500D01*
X109099362Y-69924500D01*
X109145718Y-69929065D01*
X109145718Y-69929065D01*
G37*
G36*
X83255104Y-69628847D02*
G01*
X83291644Y-69639932D01*
X83325321Y-69657933D01*
X83354841Y-69682159D01*
X83379067Y-69711679D01*
X83397068Y-69745356D01*
X83408153Y-69781896D01*
X83412500Y-69826038D01*
X83412500Y-70774962D01*
X83408153Y-70819104D01*
X83397068Y-70855644D01*
X83379067Y-70889321D01*
X83354841Y-70918841D01*
X83325321Y-70943067D01*
X83291644Y-70961068D01*
X83255104Y-70972153D01*
X83210962Y-70976500D01*
X81762038Y-70976500D01*
X81717896Y-70972153D01*
X81681356Y-70961068D01*
X81647679Y-70943067D01*
X81618159Y-70918841D01*
X81593933Y-70889321D01*
X81575932Y-70855644D01*
X81564847Y-70819104D01*
X81560500Y-70774962D01*
X81560500Y-69826038D01*
X81564847Y-69781896D01*
X81575932Y-69745356D01*
X81593933Y-69711679D01*
X81618159Y-69682159D01*
X81647679Y-69657933D01*
X81681356Y-69639932D01*
X81717896Y-69628847D01*
X81762038Y-69624500D01*
X83210962Y-69624500D01*
X83255104Y-69628847D01*
X83255104Y-69628847D01*
G37*
G36*
X125752718Y-69294065D02*
G01*
X125791388Y-69305796D01*
X125827027Y-69324846D01*
X125858267Y-69350483D01*
X125883904Y-69381723D01*
X125902954Y-69417362D01*
X125914685Y-69456032D01*
X125919250Y-69502388D01*
X125919250Y-70578612D01*
X125914685Y-70624968D01*
X125902954Y-70663638D01*
X125883904Y-70699277D01*
X125858267Y-70730517D01*
X125827027Y-70756154D01*
X125791388Y-70775204D01*
X125752718Y-70786935D01*
X125706362Y-70791500D01*
X125055138Y-70791500D01*
X125008782Y-70786935D01*
X124970112Y-70775204D01*
X124934473Y-70756154D01*
X124903233Y-70730517D01*
X124877596Y-70699277D01*
X124858546Y-70663638D01*
X124846815Y-70624968D01*
X124842250Y-70578612D01*
X124842250Y-69502388D01*
X124846815Y-69456032D01*
X124858546Y-69417362D01*
X124877596Y-69381723D01*
X124903233Y-69350483D01*
X124934473Y-69324846D01*
X124970112Y-69305796D01*
X125008782Y-69294065D01*
X125055138Y-69289500D01*
X125706362Y-69289500D01*
X125752718Y-69294065D01*
X125752718Y-69294065D01*
G37*
G36*
X123877718Y-69294065D02*
G01*
X123916388Y-69305796D01*
X123952027Y-69324846D01*
X123983267Y-69350483D01*
X124008904Y-69381723D01*
X124027954Y-69417362D01*
X124039685Y-69456032D01*
X124044250Y-69502388D01*
X124044250Y-70578612D01*
X124039685Y-70624968D01*
X124027954Y-70663638D01*
X124008904Y-70699277D01*
X123983267Y-70730517D01*
X123952027Y-70756154D01*
X123916388Y-70775204D01*
X123877718Y-70786935D01*
X123831362Y-70791500D01*
X123180138Y-70791500D01*
X123133782Y-70786935D01*
X123095112Y-70775204D01*
X123059473Y-70756154D01*
X123028233Y-70730517D01*
X123002596Y-70699277D01*
X122983546Y-70663638D01*
X122971815Y-70624968D01*
X122967250Y-70578612D01*
X122967250Y-69502388D01*
X122971815Y-69456032D01*
X122983546Y-69417362D01*
X123002596Y-69381723D01*
X123028233Y-69350483D01*
X123059473Y-69324846D01*
X123095112Y-69305796D01*
X123133782Y-69294065D01*
X123180138Y-69289500D01*
X123831362Y-69289500D01*
X123877718Y-69294065D01*
X123877718Y-69294065D01*
G37*
G36*
X117908718Y-68659065D02*
G01*
X117947388Y-68670796D01*
X117983027Y-68689846D01*
X118014267Y-68715483D01*
X118039904Y-68746723D01*
X118058954Y-68782362D01*
X118070685Y-68821032D01*
X118075250Y-68867388D01*
X118075250Y-69943612D01*
X118070685Y-69989968D01*
X118058954Y-70028638D01*
X118039904Y-70064277D01*
X118014267Y-70095517D01*
X117983027Y-70121154D01*
X117947388Y-70140204D01*
X117908718Y-70151935D01*
X117862362Y-70156500D01*
X117211138Y-70156500D01*
X117164782Y-70151935D01*
X117126112Y-70140204D01*
X117090473Y-70121154D01*
X117059233Y-70095517D01*
X117033596Y-70064277D01*
X117014546Y-70028638D01*
X117002815Y-69989968D01*
X116998250Y-69943612D01*
X116998250Y-68867388D01*
X117002815Y-68821032D01*
X117014546Y-68782362D01*
X117033596Y-68746723D01*
X117059233Y-68715483D01*
X117090473Y-68689846D01*
X117126112Y-68670796D01*
X117164782Y-68659065D01*
X117211138Y-68654500D01*
X117862362Y-68654500D01*
X117908718Y-68659065D01*
X117908718Y-68659065D01*
G37*
G36*
X119783718Y-68659065D02*
G01*
X119822388Y-68670796D01*
X119858027Y-68689846D01*
X119889267Y-68715483D01*
X119914904Y-68746723D01*
X119933954Y-68782362D01*
X119945685Y-68821032D01*
X119950250Y-68867388D01*
X119950250Y-69943612D01*
X119945685Y-69989968D01*
X119933954Y-70028638D01*
X119914904Y-70064277D01*
X119889267Y-70095517D01*
X119858027Y-70121154D01*
X119822388Y-70140204D01*
X119783718Y-70151935D01*
X119737362Y-70156500D01*
X119086138Y-70156500D01*
X119039782Y-70151935D01*
X119001112Y-70140204D01*
X118965473Y-70121154D01*
X118934233Y-70095517D01*
X118908596Y-70064277D01*
X118889546Y-70028638D01*
X118877815Y-69989968D01*
X118873250Y-69943612D01*
X118873250Y-68867388D01*
X118877815Y-68821032D01*
X118889546Y-68782362D01*
X118908596Y-68746723D01*
X118934233Y-68715483D01*
X118965473Y-68689846D01*
X119001112Y-68670796D01*
X119039782Y-68659065D01*
X119086138Y-68654500D01*
X119737362Y-68654500D01*
X119783718Y-68659065D01*
X119783718Y-68659065D01*
G37*
G36*
X76720968Y-68841565D02*
G01*
X76759638Y-68853296D01*
X76795277Y-68872346D01*
X76826517Y-68897983D01*
X76852154Y-68929223D01*
X76871204Y-68964862D01*
X76882935Y-69003532D01*
X76887500Y-69049888D01*
X76887500Y-69701112D01*
X76882935Y-69747468D01*
X76871204Y-69786138D01*
X76852154Y-69821777D01*
X76826517Y-69853017D01*
X76795277Y-69878654D01*
X76759638Y-69897704D01*
X76720968Y-69909435D01*
X76674612Y-69914000D01*
X75598388Y-69914000D01*
X75552032Y-69909435D01*
X75513362Y-69897704D01*
X75477723Y-69878654D01*
X75446483Y-69853017D01*
X75420846Y-69821777D01*
X75401796Y-69786138D01*
X75390065Y-69747468D01*
X75385500Y-69701112D01*
X75385500Y-69049888D01*
X75390065Y-69003532D01*
X75401796Y-68964862D01*
X75420846Y-68929223D01*
X75446483Y-68897983D01*
X75477723Y-68872346D01*
X75513362Y-68853296D01*
X75552032Y-68841565D01*
X75598388Y-68837000D01*
X76674612Y-68837000D01*
X76720968Y-68841565D01*
X76720968Y-68841565D01*
G37*
G36*
X79895968Y-68841565D02*
G01*
X79934638Y-68853296D01*
X79970277Y-68872346D01*
X80001517Y-68897983D01*
X80027154Y-68929223D01*
X80046204Y-68964862D01*
X80057935Y-69003532D01*
X80062500Y-69049888D01*
X80062500Y-69701112D01*
X80057935Y-69747468D01*
X80046204Y-69786138D01*
X80027154Y-69821777D01*
X80001517Y-69853017D01*
X79970277Y-69878654D01*
X79934638Y-69897704D01*
X79895968Y-69909435D01*
X79849612Y-69914000D01*
X78773388Y-69914000D01*
X78727032Y-69909435D01*
X78688362Y-69897704D01*
X78652723Y-69878654D01*
X78621483Y-69853017D01*
X78595846Y-69821777D01*
X78576796Y-69786138D01*
X78565065Y-69747468D01*
X78560500Y-69701112D01*
X78560500Y-69049888D01*
X78565065Y-69003532D01*
X78576796Y-68964862D01*
X78595846Y-68929223D01*
X78621483Y-68897983D01*
X78652723Y-68872346D01*
X78688362Y-68853296D01*
X78727032Y-68841565D01*
X78773388Y-68837000D01*
X79849612Y-68837000D01*
X79895968Y-68841565D01*
X79895968Y-68841565D01*
G37*
G36*
X100893750Y-69445250D02*
G01*
X99291750Y-69445250D01*
X99291750Y-60793250D01*
X100893750Y-60793250D01*
X100893750Y-69445250D01*
X100893750Y-69445250D01*
G37*
G36*
X89493750Y-69445250D02*
G01*
X87891750Y-69445250D01*
X87891750Y-60793250D01*
X89493750Y-60793250D01*
X89493750Y-69445250D01*
X89493750Y-69445250D01*
G37*
G36*
X109145718Y-67389065D02*
G01*
X109184388Y-67400796D01*
X109220027Y-67419846D01*
X109251267Y-67445483D01*
X109276904Y-67476723D01*
X109295954Y-67512362D01*
X109307685Y-67551032D01*
X109312250Y-67597388D01*
X109312250Y-68673612D01*
X109307685Y-68719968D01*
X109295954Y-68758638D01*
X109276904Y-68794277D01*
X109251267Y-68825517D01*
X109220027Y-68851154D01*
X109184388Y-68870204D01*
X109145718Y-68881935D01*
X109099362Y-68886500D01*
X108448138Y-68886500D01*
X108401782Y-68881935D01*
X108363112Y-68870204D01*
X108327473Y-68851154D01*
X108296233Y-68825517D01*
X108270596Y-68794277D01*
X108251546Y-68758638D01*
X108239815Y-68719968D01*
X108235250Y-68673612D01*
X108235250Y-67597388D01*
X108239815Y-67551032D01*
X108251546Y-67512362D01*
X108270596Y-67476723D01*
X108296233Y-67445483D01*
X108327473Y-67419846D01*
X108363112Y-67400796D01*
X108401782Y-67389065D01*
X108448138Y-67384500D01*
X109099362Y-67384500D01*
X109145718Y-67389065D01*
X109145718Y-67389065D01*
G37*
G36*
X111020718Y-67389065D02*
G01*
X111059388Y-67400796D01*
X111095027Y-67419846D01*
X111126267Y-67445483D01*
X111151904Y-67476723D01*
X111170954Y-67512362D01*
X111182685Y-67551032D01*
X111187250Y-67597388D01*
X111187250Y-68673612D01*
X111182685Y-68719968D01*
X111170954Y-68758638D01*
X111151904Y-68794277D01*
X111126267Y-68825517D01*
X111095027Y-68851154D01*
X111059388Y-68870204D01*
X111020718Y-68881935D01*
X110974362Y-68886500D01*
X110323138Y-68886500D01*
X110276782Y-68881935D01*
X110238112Y-68870204D01*
X110202473Y-68851154D01*
X110171233Y-68825517D01*
X110145596Y-68794277D01*
X110126546Y-68758638D01*
X110114815Y-68719968D01*
X110110250Y-68673612D01*
X110110250Y-67597388D01*
X110114815Y-67551032D01*
X110126546Y-67512362D01*
X110145596Y-67476723D01*
X110171233Y-67445483D01*
X110202473Y-67419846D01*
X110238112Y-67400796D01*
X110276782Y-67389065D01*
X110323138Y-67384500D01*
X110974362Y-67384500D01*
X111020718Y-67389065D01*
X111020718Y-67389065D01*
G37*
G36*
X83255104Y-66828847D02*
G01*
X83291644Y-66839932D01*
X83325321Y-66857933D01*
X83354841Y-66882159D01*
X83379067Y-66911679D01*
X83397068Y-66945356D01*
X83408153Y-66981896D01*
X83412500Y-67026038D01*
X83412500Y-67974962D01*
X83408153Y-68019104D01*
X83397068Y-68055644D01*
X83379067Y-68089321D01*
X83354841Y-68118841D01*
X83325321Y-68143067D01*
X83291644Y-68161068D01*
X83255104Y-68172153D01*
X83210962Y-68176500D01*
X81762038Y-68176500D01*
X81717896Y-68172153D01*
X81681356Y-68161068D01*
X81647679Y-68143067D01*
X81618159Y-68118841D01*
X81593933Y-68089321D01*
X81575932Y-68055644D01*
X81564847Y-68019104D01*
X81560500Y-67974962D01*
X81560500Y-67026038D01*
X81564847Y-66981896D01*
X81575932Y-66945356D01*
X81593933Y-66911679D01*
X81618159Y-66882159D01*
X81647679Y-66857933D01*
X81681356Y-66839932D01*
X81717896Y-66828847D01*
X81762038Y-66824500D01*
X83210962Y-66824500D01*
X83255104Y-66828847D01*
X83255104Y-66828847D01*
G37*
G36*
X79895968Y-66966565D02*
G01*
X79934638Y-66978296D01*
X79970277Y-66997346D01*
X80001517Y-67022983D01*
X80027154Y-67054223D01*
X80046204Y-67089862D01*
X80057935Y-67128532D01*
X80062500Y-67174888D01*
X80062500Y-67826112D01*
X80057935Y-67872468D01*
X80046204Y-67911138D01*
X80027154Y-67946777D01*
X80001517Y-67978017D01*
X79970277Y-68003654D01*
X79934638Y-68022704D01*
X79895968Y-68034435D01*
X79849612Y-68039000D01*
X78773388Y-68039000D01*
X78727032Y-68034435D01*
X78688362Y-68022704D01*
X78652723Y-68003654D01*
X78621483Y-67978017D01*
X78595846Y-67946777D01*
X78576796Y-67911138D01*
X78565065Y-67872468D01*
X78560500Y-67826112D01*
X78560500Y-67174888D01*
X78565065Y-67128532D01*
X78576796Y-67089862D01*
X78595846Y-67054223D01*
X78621483Y-67022983D01*
X78652723Y-66997346D01*
X78688362Y-66978296D01*
X78727032Y-66966565D01*
X78773388Y-66962000D01*
X79849612Y-66962000D01*
X79895968Y-66966565D01*
X79895968Y-66966565D01*
G37*
G36*
X76720968Y-66966565D02*
G01*
X76759638Y-66978296D01*
X76795277Y-66997346D01*
X76826517Y-67022983D01*
X76852154Y-67054223D01*
X76871204Y-67089862D01*
X76882935Y-67128532D01*
X76887500Y-67174888D01*
X76887500Y-67826112D01*
X76882935Y-67872468D01*
X76871204Y-67911138D01*
X76852154Y-67946777D01*
X76826517Y-67978017D01*
X76795277Y-68003654D01*
X76759638Y-68022704D01*
X76720968Y-68034435D01*
X76674612Y-68039000D01*
X75598388Y-68039000D01*
X75552032Y-68034435D01*
X75513362Y-68022704D01*
X75477723Y-68003654D01*
X75446483Y-67978017D01*
X75420846Y-67946777D01*
X75401796Y-67911138D01*
X75390065Y-67872468D01*
X75385500Y-67826112D01*
X75385500Y-67174888D01*
X75390065Y-67128532D01*
X75401796Y-67089862D01*
X75420846Y-67054223D01*
X75446483Y-67022983D01*
X75477723Y-66997346D01*
X75513362Y-66978296D01*
X75552032Y-66966565D01*
X75598388Y-66962000D01*
X76674612Y-66962000D01*
X76720968Y-66966565D01*
X76720968Y-66966565D01*
G37*
G36*
X125752718Y-65865065D02*
G01*
X125791388Y-65876796D01*
X125827027Y-65895846D01*
X125858267Y-65921483D01*
X125883904Y-65952723D01*
X125902954Y-65988362D01*
X125914685Y-66027032D01*
X125919250Y-66073388D01*
X125919250Y-67149612D01*
X125914685Y-67195968D01*
X125902954Y-67234638D01*
X125883904Y-67270277D01*
X125858267Y-67301517D01*
X125827027Y-67327154D01*
X125791388Y-67346204D01*
X125752718Y-67357935D01*
X125706362Y-67362500D01*
X125055138Y-67362500D01*
X125008782Y-67357935D01*
X124970112Y-67346204D01*
X124934473Y-67327154D01*
X124903233Y-67301517D01*
X124877596Y-67270277D01*
X124858546Y-67234638D01*
X124846815Y-67195968D01*
X124842250Y-67149612D01*
X124842250Y-66073388D01*
X124846815Y-66027032D01*
X124858546Y-65988362D01*
X124877596Y-65952723D01*
X124903233Y-65921483D01*
X124934473Y-65895846D01*
X124970112Y-65876796D01*
X125008782Y-65865065D01*
X125055138Y-65860500D01*
X125706362Y-65860500D01*
X125752718Y-65865065D01*
X125752718Y-65865065D01*
G37*
G36*
X123877718Y-65865065D02*
G01*
X123916388Y-65876796D01*
X123952027Y-65895846D01*
X123983267Y-65921483D01*
X124008904Y-65952723D01*
X124027954Y-65988362D01*
X124039685Y-66027032D01*
X124044250Y-66073388D01*
X124044250Y-67149612D01*
X124039685Y-67195968D01*
X124027954Y-67234638D01*
X124008904Y-67270277D01*
X123983267Y-67301517D01*
X123952027Y-67327154D01*
X123916388Y-67346204D01*
X123877718Y-67357935D01*
X123831362Y-67362500D01*
X123180138Y-67362500D01*
X123133782Y-67357935D01*
X123095112Y-67346204D01*
X123059473Y-67327154D01*
X123028233Y-67301517D01*
X123002596Y-67270277D01*
X122983546Y-67234638D01*
X122971815Y-67195968D01*
X122967250Y-67149612D01*
X122967250Y-66073388D01*
X122971815Y-66027032D01*
X122983546Y-65988362D01*
X123002596Y-65952723D01*
X123028233Y-65921483D01*
X123059473Y-65895846D01*
X123095112Y-65876796D01*
X123133782Y-65865065D01*
X123180138Y-65860500D01*
X123831362Y-65860500D01*
X123877718Y-65865065D01*
X123877718Y-65865065D01*
G37*
G36*
X118085750Y-66513750D02*
G01*
X116583750Y-66513750D01*
X116583750Y-65211750D01*
X118085750Y-65211750D01*
X118085750Y-66513750D01*
X118085750Y-66513750D01*
G37*
G36*
X120285750Y-66513750D02*
G01*
X118783750Y-66513750D01*
X118783750Y-65211750D01*
X120285750Y-65211750D01*
X120285750Y-66513750D01*
X120285750Y-66513750D01*
G37*
G36*
X120285750Y-64813750D02*
G01*
X118783750Y-64813750D01*
X118783750Y-63511750D01*
X120285750Y-63511750D01*
X120285750Y-64813750D01*
X120285750Y-64813750D01*
G37*
G36*
X118085750Y-64813750D02*
G01*
X116583750Y-64813750D01*
X116583750Y-63511750D01*
X118085750Y-63511750D01*
X118085750Y-64813750D01*
X118085750Y-64813750D01*
G37*
G36*
X107737750Y-64490500D02*
G01*
X105835750Y-64490500D01*
X105835750Y-63288500D01*
X107737750Y-63288500D01*
X107737750Y-64490500D01*
X107737750Y-64490500D01*
G37*
G36*
X113937750Y-64490500D02*
G01*
X112035750Y-64490500D01*
X112035750Y-63288500D01*
X113937750Y-63288500D01*
X113937750Y-64490500D01*
X113937750Y-64490500D01*
G37*
G36*
X125752718Y-62563065D02*
G01*
X125791388Y-62574796D01*
X125827027Y-62593846D01*
X125858267Y-62619483D01*
X125883904Y-62650723D01*
X125902954Y-62686362D01*
X125914685Y-62725032D01*
X125919250Y-62771388D01*
X125919250Y-63847612D01*
X125914685Y-63893968D01*
X125902954Y-63932638D01*
X125883904Y-63968277D01*
X125858267Y-63999517D01*
X125827027Y-64025154D01*
X125791388Y-64044204D01*
X125752718Y-64055935D01*
X125706362Y-64060500D01*
X125055138Y-64060500D01*
X125008782Y-64055935D01*
X124970112Y-64044204D01*
X124934473Y-64025154D01*
X124903233Y-63999517D01*
X124877596Y-63968277D01*
X124858546Y-63932638D01*
X124846815Y-63893968D01*
X124842250Y-63847612D01*
X124842250Y-62771388D01*
X124846815Y-62725032D01*
X124858546Y-62686362D01*
X124877596Y-62650723D01*
X124903233Y-62619483D01*
X124934473Y-62593846D01*
X124970112Y-62574796D01*
X125008782Y-62563065D01*
X125055138Y-62558500D01*
X125706362Y-62558500D01*
X125752718Y-62563065D01*
X125752718Y-62563065D01*
G37*
G36*
X123877718Y-62563065D02*
G01*
X123916388Y-62574796D01*
X123952027Y-62593846D01*
X123983267Y-62619483D01*
X124008904Y-62650723D01*
X124027954Y-62686362D01*
X124039685Y-62725032D01*
X124044250Y-62771388D01*
X124044250Y-63847612D01*
X124039685Y-63893968D01*
X124027954Y-63932638D01*
X124008904Y-63968277D01*
X123983267Y-63999517D01*
X123952027Y-64025154D01*
X123916388Y-64044204D01*
X123877718Y-64055935D01*
X123831362Y-64060500D01*
X123180138Y-64060500D01*
X123133782Y-64055935D01*
X123095112Y-64044204D01*
X123059473Y-64025154D01*
X123028233Y-63999517D01*
X123002596Y-63968277D01*
X122983546Y-63932638D01*
X122971815Y-63893968D01*
X122967250Y-63847612D01*
X122967250Y-62771388D01*
X122971815Y-62725032D01*
X122983546Y-62686362D01*
X123002596Y-62650723D01*
X123028233Y-62619483D01*
X123059473Y-62593846D01*
X123095112Y-62574796D01*
X123133782Y-62563065D01*
X123180138Y-62558500D01*
X123831362Y-62558500D01*
X123877718Y-62563065D01*
X123877718Y-62563065D01*
G37*
G36*
X83074627Y-61024037D02*
G01*
X83244466Y-61075557D01*
X83400991Y-61159222D01*
X83436729Y-61188552D01*
X83538186Y-61271814D01*
X83600810Y-61348123D01*
X83650778Y-61409009D01*
X83734443Y-61565534D01*
X83785963Y-61735373D01*
X83785963Y-61735375D01*
X83795691Y-61834139D01*
X83799000Y-61867742D01*
X83799000Y-62956258D01*
X83785963Y-63088627D01*
X83734443Y-63258466D01*
X83650778Y-63414991D01*
X83621448Y-63450729D01*
X83538186Y-63552186D01*
X83400989Y-63664779D01*
X83244467Y-63748442D01*
X83244465Y-63748443D01*
X83074626Y-63799963D01*
X82898000Y-63817359D01*
X82721373Y-63799963D01*
X82551534Y-63748443D01*
X82395009Y-63664778D01*
X82359271Y-63635448D01*
X82257814Y-63552186D01*
X82145221Y-63414989D01*
X82061558Y-63258467D01*
X82061557Y-63258465D01*
X82010037Y-63088626D01*
X81997000Y-62956257D01*
X81997001Y-61867742D01*
X82000311Y-61834139D01*
X82010038Y-61735375D01*
X82010038Y-61735373D01*
X82061558Y-61565534D01*
X82145223Y-61409009D01*
X82195191Y-61348123D01*
X82257815Y-61271814D01*
X82359272Y-61188552D01*
X82395010Y-61159222D01*
X82551535Y-61075557D01*
X82721374Y-61024037D01*
X82898000Y-61006641D01*
X83074627Y-61024037D01*
X83074627Y-61024037D01*
G37*
G36*
X75774627Y-61024037D02*
G01*
X75944466Y-61075557D01*
X76100991Y-61159222D01*
X76136729Y-61188552D01*
X76238186Y-61271814D01*
X76300810Y-61348123D01*
X76350778Y-61409009D01*
X76434443Y-61565534D01*
X76485963Y-61735373D01*
X76485963Y-61735375D01*
X76495691Y-61834139D01*
X76499000Y-61867742D01*
X76499000Y-62956258D01*
X76485963Y-63088627D01*
X76434443Y-63258466D01*
X76350778Y-63414991D01*
X76321448Y-63450729D01*
X76238186Y-63552186D01*
X76100989Y-63664779D01*
X75944467Y-63748442D01*
X75944465Y-63748443D01*
X75774626Y-63799963D01*
X75598000Y-63817359D01*
X75421373Y-63799963D01*
X75251534Y-63748443D01*
X75095009Y-63664778D01*
X75059271Y-63635448D01*
X74957814Y-63552186D01*
X74845221Y-63414989D01*
X74761558Y-63258467D01*
X74761557Y-63258465D01*
X74710037Y-63088626D01*
X74697000Y-62956257D01*
X74697001Y-61867742D01*
X74700311Y-61834139D01*
X74710038Y-61735375D01*
X74710038Y-61735373D01*
X74761558Y-61565534D01*
X74845223Y-61409009D01*
X74895191Y-61348123D01*
X74957815Y-61271814D01*
X75059272Y-61188552D01*
X75095010Y-61159222D01*
X75251535Y-61075557D01*
X75421374Y-61024037D01*
X75598000Y-61006641D01*
X75774627Y-61024037D01*
X75774627Y-61024037D01*
G37*
G36*
X81149000Y-63588000D02*
G01*
X77347000Y-63588000D01*
X77347000Y-61236000D01*
X81149000Y-61236000D01*
X81149000Y-63588000D01*
X81149000Y-63588000D01*
G37*
G36*
X86341218Y-60840565D02*
G01*
X86379888Y-60852296D01*
X86415527Y-60871346D01*
X86446767Y-60896983D01*
X86472404Y-60928223D01*
X86491454Y-60963862D01*
X86503185Y-61002532D01*
X86507750Y-61048888D01*
X86507750Y-61700112D01*
X86503185Y-61746468D01*
X86491454Y-61785138D01*
X86472404Y-61820777D01*
X86446767Y-61852017D01*
X86415527Y-61877654D01*
X86379888Y-61896704D01*
X86341218Y-61908435D01*
X86294862Y-61913000D01*
X85218638Y-61913000D01*
X85172282Y-61908435D01*
X85133612Y-61896704D01*
X85097973Y-61877654D01*
X85066733Y-61852017D01*
X85041096Y-61820777D01*
X85022046Y-61785138D01*
X85010315Y-61746468D01*
X85005750Y-61700112D01*
X85005750Y-61048888D01*
X85010315Y-61002532D01*
X85022046Y-60963862D01*
X85041096Y-60928223D01*
X85066733Y-60896983D01*
X85097973Y-60871346D01*
X85133612Y-60852296D01*
X85172282Y-60840565D01*
X85218638Y-60836000D01*
X86294862Y-60836000D01*
X86341218Y-60840565D01*
X86341218Y-60840565D01*
G37*
G36*
X119800468Y-59896065D02*
G01*
X119839138Y-59907796D01*
X119874777Y-59926846D01*
X119906017Y-59952483D01*
X119931654Y-59983723D01*
X119950704Y-60019362D01*
X119962435Y-60058032D01*
X119967000Y-60104388D01*
X119967000Y-61180612D01*
X119962435Y-61226968D01*
X119950704Y-61265638D01*
X119931654Y-61301277D01*
X119906017Y-61332517D01*
X119874777Y-61358154D01*
X119839138Y-61377204D01*
X119800468Y-61388935D01*
X119754112Y-61393500D01*
X119102888Y-61393500D01*
X119056532Y-61388935D01*
X119017862Y-61377204D01*
X118982223Y-61358154D01*
X118950983Y-61332517D01*
X118925346Y-61301277D01*
X118906296Y-61265638D01*
X118894565Y-61226968D01*
X118890000Y-61180612D01*
X118890000Y-60104388D01*
X118894565Y-60058032D01*
X118906296Y-60019362D01*
X118925346Y-59983723D01*
X118950983Y-59952483D01*
X118982223Y-59926846D01*
X119017862Y-59907796D01*
X119056532Y-59896065D01*
X119102888Y-59891500D01*
X119754112Y-59891500D01*
X119800468Y-59896065D01*
X119800468Y-59896065D01*
G37*
G36*
X117925468Y-59896065D02*
G01*
X117964138Y-59907796D01*
X117999777Y-59926846D01*
X118031017Y-59952483D01*
X118056654Y-59983723D01*
X118075704Y-60019362D01*
X118087435Y-60058032D01*
X118092000Y-60104388D01*
X118092000Y-61180612D01*
X118087435Y-61226968D01*
X118075704Y-61265638D01*
X118056654Y-61301277D01*
X118031017Y-61332517D01*
X117999777Y-61358154D01*
X117964138Y-61377204D01*
X117925468Y-61388935D01*
X117879112Y-61393500D01*
X117227888Y-61393500D01*
X117181532Y-61388935D01*
X117142862Y-61377204D01*
X117107223Y-61358154D01*
X117075983Y-61332517D01*
X117050346Y-61301277D01*
X117031296Y-61265638D01*
X117019565Y-61226968D01*
X117015000Y-61180612D01*
X117015000Y-60104388D01*
X117019565Y-60058032D01*
X117031296Y-60019362D01*
X117050346Y-59983723D01*
X117075983Y-59952483D01*
X117107223Y-59926846D01*
X117142862Y-59907796D01*
X117181532Y-59896065D01*
X117227888Y-59891500D01*
X117879112Y-59891500D01*
X117925468Y-59896065D01*
X117925468Y-59896065D01*
G37*
G36*
X107737750Y-60790500D02*
G01*
X105835750Y-60790500D01*
X105835750Y-59588500D01*
X107737750Y-59588500D01*
X107737750Y-60790500D01*
X107737750Y-60790500D01*
G37*
G36*
X113937750Y-60790500D02*
G01*
X112035750Y-60790500D01*
X112035750Y-59588500D01*
X113937750Y-59588500D01*
X113937750Y-60790500D01*
X113937750Y-60790500D01*
G37*
G36*
X125752718Y-59134065D02*
G01*
X125791388Y-59145796D01*
X125827027Y-59164846D01*
X125858267Y-59190483D01*
X125883904Y-59221723D01*
X125902954Y-59257362D01*
X125914685Y-59296032D01*
X125919250Y-59342388D01*
X125919250Y-60418612D01*
X125914685Y-60464968D01*
X125902954Y-60503638D01*
X125883904Y-60539277D01*
X125858267Y-60570517D01*
X125827027Y-60596154D01*
X125791388Y-60615204D01*
X125752718Y-60626935D01*
X125706362Y-60631500D01*
X125055138Y-60631500D01*
X125008782Y-60626935D01*
X124970112Y-60615204D01*
X124934473Y-60596154D01*
X124903233Y-60570517D01*
X124877596Y-60539277D01*
X124858546Y-60503638D01*
X124846815Y-60464968D01*
X124842250Y-60418612D01*
X124842250Y-59342388D01*
X124846815Y-59296032D01*
X124858546Y-59257362D01*
X124877596Y-59221723D01*
X124903233Y-59190483D01*
X124934473Y-59164846D01*
X124970112Y-59145796D01*
X125008782Y-59134065D01*
X125055138Y-59129500D01*
X125706362Y-59129500D01*
X125752718Y-59134065D01*
X125752718Y-59134065D01*
G37*
G36*
X123877718Y-59134065D02*
G01*
X123916388Y-59145796D01*
X123952027Y-59164846D01*
X123983267Y-59190483D01*
X124008904Y-59221723D01*
X124027954Y-59257362D01*
X124039685Y-59296032D01*
X124044250Y-59342388D01*
X124044250Y-60418612D01*
X124039685Y-60464968D01*
X124027954Y-60503638D01*
X124008904Y-60539277D01*
X123983267Y-60570517D01*
X123952027Y-60596154D01*
X123916388Y-60615204D01*
X123877718Y-60626935D01*
X123831362Y-60631500D01*
X123180138Y-60631500D01*
X123133782Y-60626935D01*
X123095112Y-60615204D01*
X123059473Y-60596154D01*
X123028233Y-60570517D01*
X123002596Y-60539277D01*
X122983546Y-60503638D01*
X122971815Y-60464968D01*
X122967250Y-60418612D01*
X122967250Y-59342388D01*
X122971815Y-59296032D01*
X122983546Y-59257362D01*
X123002596Y-59221723D01*
X123028233Y-59190483D01*
X123059473Y-59164846D01*
X123095112Y-59145796D01*
X123133782Y-59134065D01*
X123180138Y-59129500D01*
X123831362Y-59129500D01*
X123877718Y-59134065D01*
X123877718Y-59134065D01*
G37*
G36*
X98718750Y-60220250D02*
G01*
X90066750Y-60220250D01*
X90066750Y-58618250D01*
X98718750Y-58618250D01*
X98718750Y-60220250D01*
X98718750Y-60220250D01*
G37*
G36*
X86341218Y-58965565D02*
G01*
X86379888Y-58977296D01*
X86415527Y-58996346D01*
X86446767Y-59021983D01*
X86472404Y-59053223D01*
X86491454Y-59088862D01*
X86503185Y-59127532D01*
X86507750Y-59173888D01*
X86507750Y-59825112D01*
X86503185Y-59871468D01*
X86491454Y-59910138D01*
X86472404Y-59945777D01*
X86446767Y-59977017D01*
X86415527Y-60002654D01*
X86379888Y-60021704D01*
X86341218Y-60033435D01*
X86294862Y-60038000D01*
X85218638Y-60038000D01*
X85172282Y-60033435D01*
X85133612Y-60021704D01*
X85097973Y-60002654D01*
X85066733Y-59977017D01*
X85041096Y-59945777D01*
X85022046Y-59910138D01*
X85010315Y-59871468D01*
X85005750Y-59825112D01*
X85005750Y-59173888D01*
X85010315Y-59127532D01*
X85022046Y-59088862D01*
X85041096Y-59053223D01*
X85066733Y-59021983D01*
X85097973Y-58996346D01*
X85133612Y-58977296D01*
X85172282Y-58965565D01*
X85218638Y-58961000D01*
X86294862Y-58961000D01*
X86341218Y-58965565D01*
X86341218Y-58965565D01*
G37*
G36*
X83074627Y-56524037D02*
G01*
X83244466Y-56575557D01*
X83400991Y-56659222D01*
X83436729Y-56688552D01*
X83538186Y-56771814D01*
X83621448Y-56873271D01*
X83650778Y-56909009D01*
X83734443Y-57065534D01*
X83785963Y-57235373D01*
X83799000Y-57367742D01*
X83799000Y-58456258D01*
X83785963Y-58588627D01*
X83734443Y-58758466D01*
X83650778Y-58914991D01*
X83621448Y-58950729D01*
X83538186Y-59052186D01*
X83400989Y-59164779D01*
X83244467Y-59248442D01*
X83244465Y-59248443D01*
X83074626Y-59299963D01*
X82898000Y-59317359D01*
X82721373Y-59299963D01*
X82551534Y-59248443D01*
X82517498Y-59230250D01*
X82413903Y-59174877D01*
X82395009Y-59164778D01*
X82349235Y-59127212D01*
X82257814Y-59052186D01*
X82145221Y-58914989D01*
X82061558Y-58758467D01*
X82061557Y-58758465D01*
X82010037Y-58588626D01*
X81997000Y-58456257D01*
X81997001Y-57367742D01*
X82010038Y-57235373D01*
X82061558Y-57065534D01*
X82145223Y-56909009D01*
X82174553Y-56873271D01*
X82257815Y-56771814D01*
X82359272Y-56688552D01*
X82395010Y-56659222D01*
X82551535Y-56575557D01*
X82721374Y-56524037D01*
X82898000Y-56506641D01*
X83074627Y-56524037D01*
X83074627Y-56524037D01*
G37*
G36*
X75774627Y-56524037D02*
G01*
X75944466Y-56575557D01*
X76100991Y-56659222D01*
X76136729Y-56688552D01*
X76238186Y-56771814D01*
X76321448Y-56873271D01*
X76350778Y-56909009D01*
X76434443Y-57065534D01*
X76485963Y-57235373D01*
X76499000Y-57367742D01*
X76499000Y-58456258D01*
X76485963Y-58588627D01*
X76434443Y-58758466D01*
X76350778Y-58914991D01*
X76321448Y-58950729D01*
X76238186Y-59052186D01*
X76100989Y-59164779D01*
X75944467Y-59248442D01*
X75944465Y-59248443D01*
X75774626Y-59299963D01*
X75598000Y-59317359D01*
X75421373Y-59299963D01*
X75251534Y-59248443D01*
X75217498Y-59230250D01*
X75113903Y-59174877D01*
X75095009Y-59164778D01*
X75049235Y-59127212D01*
X74957814Y-59052186D01*
X74845221Y-58914989D01*
X74761558Y-58758467D01*
X74761557Y-58758465D01*
X74710037Y-58588626D01*
X74697000Y-58456257D01*
X74697001Y-57367742D01*
X74710038Y-57235373D01*
X74761558Y-57065534D01*
X74845223Y-56909009D01*
X74874553Y-56873271D01*
X74957815Y-56771814D01*
X75059272Y-56688552D01*
X75095010Y-56659222D01*
X75251535Y-56575557D01*
X75421374Y-56524037D01*
X75598000Y-56506641D01*
X75774627Y-56524037D01*
X75774627Y-56524037D01*
G37*
M02*
