M48
; DRILL file {KiCad (5.1.2)-2} date 8/6/2019 1:22:49 PM
; FORMAT={-:-/ absolute / inch / decimal}
; #@! TF.CreationDate,2019-08-06T13:22:49-07:00
; #@! TF.GenerationSoftware,Kicad,Pcbnew,(5.1.2)-2
; #@! TF.FileFunction,Plated,1,2,PTH
FMAT,2
INCH
T1C0.0157
T2C0.0276
T3C0.0409
T4C0.0579
%
G90
G05
T1
X3.4213Y-2.6575
X3.4274Y-2.3936
X3.5332Y-2.8361
X3.5913Y-3.0012
X3.5913Y-3.7512
X3.5913Y-4.5012
X3.7512Y-2.8575
X3.7812Y-2.2625
X3.795Y-2.86
X3.795Y-2.86
X3.795Y-2.9375
X3.84Y-2.86
X3.84Y-2.94
X3.88Y-2.94
X3.8813Y-2.86
X3.8813Y-2.86
X3.9263Y-2.86
X3.9263Y-2.9425
X4.0412Y-2.6575
X4.0912Y-2.7825
X4.0912Y-2.9387
X4.1162Y-2.3725
X4.1162Y-2.6925
X4.1913Y-2.5689
X4.1913Y-2.6575
X4.3412Y-3.0012
X4.3412Y-3.7512
X4.3412Y-3.7512
X4.3412Y-4.5012
X4.4363Y-2.6575
X4.56Y-2.9387
X5.0287Y-3.0325
X5.0287Y-3.7825
X5.0287Y-4.5325
T3
X3.9162Y-4.2325
X4.0163Y-4.2325
X3.1662Y-4.9825
X3.2662Y-4.9825
X4.6662Y-3.4825
X4.7663Y-3.4825
X3.9162Y-4.9825
X4.0163Y-4.9825
X3.9162Y-3.4825
X4.0163Y-3.4825
X3.1662Y-4.2325
X3.2662Y-4.2325
X3.1662Y-3.4825
X3.2662Y-3.4825
X4.6662Y-4.2325
X4.7663Y-4.2325
X4.6662Y-4.9825
X4.7663Y-4.9825
T4
X3.8162Y-3.1825
X3.8678Y-3.125
X4.0647Y-3.1053
X4.0663Y-3.0825
X3.0663Y-3.9325
X3.1178Y-3.875
X3.3147Y-3.8553
X3.3163Y-3.8325
X3.0663Y-3.1825
X3.1178Y-3.125
X3.3147Y-3.1053
X3.3163Y-3.0825
X4.5663Y-3.9325
X4.6178Y-3.875
X4.8147Y-3.8553
X4.8163Y-3.8325
X4.5663Y-4.6825
X4.6178Y-4.625
X4.8147Y-4.6053
X4.8163Y-4.5825
X3.8162Y-3.9325
X3.8678Y-3.875
X4.0647Y-3.8553
X4.0663Y-3.8325
X3.0663Y-4.6825
X3.1178Y-4.625
X3.3147Y-4.6053
X3.3163Y-4.5825
X4.5663Y-3.1825
X4.6178Y-3.125
X4.8147Y-3.1053
X4.8163Y-3.0825
X3.8162Y-4.6825
X3.8678Y-4.625
X4.0647Y-4.6053
X4.0663Y-4.5825
T2
G00X2.9763Y-2.2564
M15
G01X2.9763Y-2.3036
M16
G05
G00X2.9763Y-2.4335
M15
G01X2.9763Y-2.4808
M16
G05
G00X3.2637Y-2.2564
M15
G01X3.2637Y-2.3036
M16
G05
G00X3.2637Y-2.4335
M15
G01X3.2637Y-2.4808
M16
G05
T0
M30
