G04 #@! TF.GenerationSoftware,KiCad,Pcbnew,(5.1.2)-2*
G04 #@! TF.CreationDate,2019-08-06T13:22:13-07:00*
G04 #@! TF.ProjectId,first-keyboard,66697273-742d-46b6-9579-626f6172642e,rev?*
G04 #@! TF.SameCoordinates,Original*
G04 #@! TF.FileFunction,Legend,Top*
G04 #@! TF.FilePolarity,Positive*
%FSLAX46Y46*%
G04 Gerber Fmt 4.6, Leading zero omitted, Abs format (unit mm)*
G04 Created by KiCad (PCBNEW (5.1.2)-2) date 2019-08-06 13:22:13*
%MOMM*%
%LPD*%
G04 APERTURE LIST*
%ADD10C,0.150000*%
%ADD11C,0.120000*%
%ADD12R,0.602000X2.352000*%
%ADD13O,1.802000X2.802000*%
%ADD14R,1.502000X1.302000*%
%ADD15R,1.602000X0.652000*%
%ADD16R,0.652000X1.602000*%
%ADD17R,1.902000X1.202000*%
%ADD18C,0.100000*%
%ADD19C,1.077000*%
%ADD20C,1.852000*%
%ADD21C,4.089800*%
%ADD22C,1.352000*%
%ADD23R,1.302000X1.002000*%
G04 APERTURE END LIST*
D10*
X112118178Y-73159880D02*
X111784845Y-72683690D01*
X111546750Y-73159880D02*
X111546750Y-72159880D01*
X111927702Y-72159880D01*
X112022940Y-72207500D01*
X112070559Y-72255119D01*
X112118178Y-72350357D01*
X112118178Y-72493214D01*
X112070559Y-72588452D01*
X112022940Y-72636071D01*
X111927702Y-72683690D01*
X111546750Y-72683690D01*
X112451511Y-72493214D02*
X112689607Y-73159880D01*
X112927702Y-72493214D02*
X112689607Y-73159880D01*
X112594369Y-73397976D01*
X112546750Y-73445595D01*
X112451511Y-73493214D01*
X113689607Y-73112261D02*
X113594369Y-73159880D01*
X113403892Y-73159880D01*
X113308654Y-73112261D01*
X113261035Y-73017023D01*
X113261035Y-72636071D01*
X113308654Y-72540833D01*
X113403892Y-72493214D01*
X113594369Y-72493214D01*
X113689607Y-72540833D01*
X113737226Y-72636071D01*
X113737226Y-72731309D01*
X113261035Y-72826547D01*
X114165797Y-72493214D02*
X114165797Y-73159880D01*
X114165797Y-72588452D02*
X114213416Y-72540833D01*
X114308654Y-72493214D01*
X114451511Y-72493214D01*
X114546750Y-72540833D01*
X114594369Y-72636071D01*
X114594369Y-73159880D01*
X115737226Y-72159880D02*
X116356273Y-72159880D01*
X116022940Y-72540833D01*
X116165797Y-72540833D01*
X116261035Y-72588452D01*
X116308654Y-72636071D01*
X116356273Y-72731309D01*
X116356273Y-72969404D01*
X116308654Y-73064642D01*
X116261035Y-73112261D01*
X116165797Y-73159880D01*
X115880083Y-73159880D01*
X115784845Y-73112261D01*
X115737226Y-73064642D01*
X116689607Y-73159880D02*
X117213416Y-72493214D01*
X116689607Y-72493214D02*
X117213416Y-73159880D01*
X117499130Y-72159880D02*
X118118178Y-72159880D01*
X117784845Y-72540833D01*
X117927702Y-72540833D01*
X118022940Y-72588452D01*
X118070559Y-72636071D01*
X118118178Y-72731309D01*
X118118178Y-72969404D01*
X118070559Y-73064642D01*
X118022940Y-73112261D01*
X117927702Y-73159880D01*
X117641988Y-73159880D01*
X117546750Y-73112261D01*
X117499130Y-73064642D01*
X119308654Y-73159880D02*
X119308654Y-72159880D01*
X119641988Y-72874166D01*
X119975321Y-72159880D01*
X119975321Y-73159880D01*
X120880083Y-73159880D02*
X120880083Y-72636071D01*
X120832464Y-72540833D01*
X120737226Y-72493214D01*
X120546750Y-72493214D01*
X120451511Y-72540833D01*
X120880083Y-73112261D02*
X120784845Y-73159880D01*
X120546750Y-73159880D01*
X120451511Y-73112261D01*
X120403892Y-73017023D01*
X120403892Y-72921785D01*
X120451511Y-72826547D01*
X120546750Y-72778928D01*
X120784845Y-72778928D01*
X120880083Y-72731309D01*
X121784845Y-73112261D02*
X121689607Y-73159880D01*
X121499130Y-73159880D01*
X121403892Y-73112261D01*
X121356273Y-73064642D01*
X121308654Y-72969404D01*
X121308654Y-72683690D01*
X121356273Y-72588452D01*
X121403892Y-72540833D01*
X121499130Y-72493214D01*
X121689607Y-72493214D01*
X121784845Y-72540833D01*
X122213416Y-73159880D02*
X122213416Y-72493214D01*
X122213416Y-72683690D02*
X122261035Y-72588452D01*
X122308654Y-72540833D01*
X122403892Y-72493214D01*
X122499130Y-72493214D01*
X122975321Y-73159880D02*
X122880083Y-73112261D01*
X122832464Y-73064642D01*
X122784845Y-72969404D01*
X122784845Y-72683690D01*
X122832464Y-72588452D01*
X122880083Y-72540833D01*
X122975321Y-72493214D01*
X123118178Y-72493214D01*
X123213416Y-72540833D01*
X123261035Y-72588452D01*
X123308654Y-72683690D01*
X123308654Y-72969404D01*
X123261035Y-73064642D01*
X123213416Y-73112261D01*
X123118178Y-73159880D01*
X122975321Y-73159880D01*
X123737226Y-73159880D02*
X123737226Y-72159880D01*
X124118178Y-72159880D01*
X124213416Y-72207500D01*
X124261035Y-72255119D01*
X124308654Y-72350357D01*
X124308654Y-72493214D01*
X124261035Y-72588452D01*
X124213416Y-72636071D01*
X124118178Y-72683690D01*
X123737226Y-72683690D01*
X125165797Y-73159880D02*
X125165797Y-72636071D01*
X125118178Y-72540833D01*
X125022940Y-72493214D01*
X124832464Y-72493214D01*
X124737226Y-72540833D01*
X125165797Y-73112261D02*
X125070559Y-73159880D01*
X124832464Y-73159880D01*
X124737226Y-73112261D01*
X124689607Y-73017023D01*
X124689607Y-72921785D01*
X124737226Y-72826547D01*
X124832464Y-72778928D01*
X125070559Y-72778928D01*
X125165797Y-72731309D01*
X126070559Y-73159880D02*
X126070559Y-72159880D01*
X126070559Y-73112261D02*
X125975321Y-73159880D01*
X125784845Y-73159880D01*
X125689607Y-73112261D01*
X125641988Y-73064642D01*
X125594369Y-72969404D01*
X125594369Y-72683690D01*
X125641988Y-72588452D01*
X125689607Y-72540833D01*
X125784845Y-72493214D01*
X125975321Y-72493214D01*
X126070559Y-72540833D01*
X127213416Y-72493214D02*
X127451511Y-73159880D01*
X127689607Y-72493214D01*
X128594369Y-73159880D02*
X128022940Y-73159880D01*
X128308654Y-73159880D02*
X128308654Y-72159880D01*
X128213416Y-72302738D01*
X128118178Y-72397976D01*
X128022940Y-72445595D01*
X83098000Y-63362000D02*
X75398000Y-63362000D01*
X75398000Y-57912000D02*
X75398000Y-63362000D01*
X83098000Y-57912000D02*
X83098000Y-63362000D01*
D11*
X120434750Y-63362750D02*
X116434750Y-63362750D01*
X120434750Y-66662750D02*
X120434750Y-63362750D01*
D10*
X89792750Y-70294250D02*
X89792750Y-71569250D01*
X89217750Y-59944250D02*
X89217750Y-60619250D01*
X99567750Y-59944250D02*
X99567750Y-60619250D01*
X99567750Y-70294250D02*
X99567750Y-69619250D01*
X89217750Y-70294250D02*
X89217750Y-69619250D01*
X99567750Y-70294250D02*
X98892750Y-70294250D01*
X99567750Y-59944250D02*
X98892750Y-59944250D01*
X89217750Y-59944250D02*
X89892750Y-59944250D01*
X89217750Y-70294250D02*
X89792750Y-70294250D01*
X107286750Y-59439500D02*
X112486750Y-59439500D01*
X112486750Y-59439500D02*
X112486750Y-64639500D01*
X112486750Y-64639500D02*
X107286750Y-64639500D01*
X107286750Y-64639500D02*
X107286750Y-59439500D01*
X110886750Y-62039500D02*
G75*
G03X110886750Y-62039500I-1000000J0D01*
G01*
D11*
X86466750Y-60178422D02*
X86466750Y-60695578D01*
X85046750Y-60178422D02*
X85046750Y-60695578D01*
X109969828Y-67425500D02*
X109452672Y-67425500D01*
X109969828Y-68845500D02*
X109452672Y-68845500D01*
X78601500Y-68696578D02*
X78601500Y-68179422D01*
X80021500Y-68696578D02*
X80021500Y-68179422D01*
X75426500Y-68696578D02*
X75426500Y-68179422D01*
X76846500Y-68696578D02*
X76846500Y-68179422D01*
X81576500Y-69502564D02*
X81576500Y-68298436D01*
X83396500Y-69502564D02*
X83396500Y-68298436D01*
X128730250Y-119163000D02*
X128730250Y-123063000D01*
X126730250Y-119163000D02*
X126730250Y-123063000D01*
X128730250Y-119163000D02*
X126730250Y-119163000D01*
X128730250Y-100113000D02*
X128730250Y-104013000D01*
X126730250Y-100113000D02*
X126730250Y-104013000D01*
X128730250Y-100113000D02*
X126730250Y-100113000D01*
X128730250Y-81063000D02*
X128730250Y-84963000D01*
X126730250Y-81063000D02*
X126730250Y-84963000D01*
X128730250Y-81063000D02*
X126730250Y-81063000D01*
X109680250Y-119163000D02*
X109680250Y-123063000D01*
X107680250Y-119163000D02*
X107680250Y-123063000D01*
X109680250Y-119163000D02*
X107680250Y-119163000D01*
X90630250Y-119163000D02*
X90630250Y-123063000D01*
X88630250Y-119163000D02*
X88630250Y-123063000D01*
X90630250Y-119163000D02*
X88630250Y-119163000D01*
X109680250Y-100113000D02*
X109680250Y-104013000D01*
X107680250Y-100113000D02*
X107680250Y-104013000D01*
X109680250Y-100113000D02*
X107680250Y-100113000D01*
X109680250Y-81063000D02*
X109680250Y-84963000D01*
X107680250Y-81063000D02*
X107680250Y-84963000D01*
X109680250Y-81063000D02*
X107680250Y-81063000D01*
X90630250Y-100113000D02*
X90630250Y-104013000D01*
X88630250Y-100113000D02*
X88630250Y-104013000D01*
X90630250Y-100113000D02*
X88630250Y-100113000D01*
X90630250Y-81063000D02*
X90630250Y-84963000D01*
X88630250Y-81063000D02*
X88630250Y-84963000D01*
X90630250Y-81063000D02*
X88630250Y-81063000D01*
X124184672Y-70750500D02*
X124701828Y-70750500D01*
X124184672Y-69330500D02*
X124701828Y-69330500D01*
X109452672Y-69965500D02*
X109969828Y-69965500D01*
X109452672Y-71385500D02*
X109969828Y-71385500D01*
X124184672Y-60590500D02*
X124701828Y-60590500D01*
X124184672Y-59170500D02*
X124701828Y-59170500D01*
X124184672Y-67321500D02*
X124701828Y-67321500D01*
X124184672Y-65901500D02*
X124701828Y-65901500D01*
X118749578Y-59932500D02*
X118232422Y-59932500D01*
X118749578Y-61352500D02*
X118232422Y-61352500D01*
X118215672Y-70115500D02*
X118732828Y-70115500D01*
X118215672Y-68695500D02*
X118732828Y-68695500D01*
X124184672Y-64019500D02*
X124701828Y-64019500D01*
X124184672Y-62599500D02*
X124701828Y-62599500D01*
D10*
X77509904Y-59396380D02*
X77509904Y-60205904D01*
X77557523Y-60301142D01*
X77605142Y-60348761D01*
X77700380Y-60396380D01*
X77890857Y-60396380D01*
X77986095Y-60348761D01*
X78033714Y-60301142D01*
X78081333Y-60205904D01*
X78081333Y-59396380D01*
X78509904Y-60348761D02*
X78652761Y-60396380D01*
X78890857Y-60396380D01*
X78986095Y-60348761D01*
X79033714Y-60301142D01*
X79081333Y-60205904D01*
X79081333Y-60110666D01*
X79033714Y-60015428D01*
X78986095Y-59967809D01*
X78890857Y-59920190D01*
X78700380Y-59872571D01*
X78605142Y-59824952D01*
X78557523Y-59777333D01*
X78509904Y-59682095D01*
X78509904Y-59586857D01*
X78557523Y-59491619D01*
X78605142Y-59444000D01*
X78700380Y-59396380D01*
X78938476Y-59396380D01*
X79081333Y-59444000D01*
X79843238Y-59872571D02*
X79986095Y-59920190D01*
X80033714Y-59967809D01*
X80081333Y-60063047D01*
X80081333Y-60205904D01*
X80033714Y-60301142D01*
X79986095Y-60348761D01*
X79890857Y-60396380D01*
X79509904Y-60396380D01*
X79509904Y-59396380D01*
X79843238Y-59396380D01*
X79938476Y-59444000D01*
X79986095Y-59491619D01*
X80033714Y-59586857D01*
X80033714Y-59682095D01*
X79986095Y-59777333D01*
X79938476Y-59824952D01*
X79843238Y-59872571D01*
X79509904Y-59872571D01*
X81033714Y-60396380D02*
X80462285Y-60396380D01*
X80748000Y-60396380D02*
X80748000Y-59396380D01*
X80652761Y-59539238D01*
X80557523Y-59634476D01*
X80462285Y-59682095D01*
X117958559Y-67438940D02*
X117958559Y-67915130D01*
X117625226Y-66915130D02*
X117958559Y-67438940D01*
X118291892Y-66915130D01*
X119149035Y-67915130D02*
X118577607Y-67915130D01*
X118863321Y-67915130D02*
X118863321Y-66915130D01*
X118768083Y-67057988D01*
X118672845Y-67153226D01*
X118577607Y-67200845D01*
X86395130Y-65881154D02*
X87204654Y-65881154D01*
X87299892Y-65833535D01*
X87347511Y-65785916D01*
X87395130Y-65690678D01*
X87395130Y-65500202D01*
X87347511Y-65404964D01*
X87299892Y-65357345D01*
X87204654Y-65309726D01*
X86395130Y-65309726D01*
X87395130Y-64309726D02*
X87395130Y-64881154D01*
X87395130Y-64595440D02*
X86395130Y-64595440D01*
X86537988Y-64690678D01*
X86633226Y-64785916D01*
X86680845Y-64881154D01*
X108553416Y-66508261D02*
X108696273Y-66555880D01*
X108934369Y-66555880D01*
X109029607Y-66508261D01*
X109077226Y-66460642D01*
X109124845Y-66365404D01*
X109124845Y-66270166D01*
X109077226Y-66174928D01*
X109029607Y-66127309D01*
X108934369Y-66079690D01*
X108743892Y-66032071D01*
X108648654Y-65984452D01*
X108601035Y-65936833D01*
X108553416Y-65841595D01*
X108553416Y-65746357D01*
X108601035Y-65651119D01*
X108648654Y-65603500D01*
X108743892Y-65555880D01*
X108981988Y-65555880D01*
X109124845Y-65603500D01*
X109458178Y-65555880D02*
X109696273Y-66555880D01*
X109886750Y-65841595D01*
X110077226Y-66555880D01*
X110315321Y-65555880D01*
X111220083Y-66555880D02*
X110648654Y-66555880D01*
X110934369Y-66555880D02*
X110934369Y-65555880D01*
X110839130Y-65698738D01*
X110743892Y-65793976D01*
X110648654Y-65841595D01*
X87859130Y-60603666D02*
X87382940Y-60937000D01*
X87859130Y-61175095D02*
X86859130Y-61175095D01*
X86859130Y-60794142D01*
X86906750Y-60698904D01*
X86954369Y-60651285D01*
X87049607Y-60603666D01*
X87192464Y-60603666D01*
X87287702Y-60651285D01*
X87335321Y-60698904D01*
X87382940Y-60794142D01*
X87382940Y-61175095D01*
X87192464Y-59746523D02*
X87859130Y-59746523D01*
X86811511Y-59984619D02*
X87525797Y-60222714D01*
X87525797Y-59603666D01*
X109544583Y-70237880D02*
X109211250Y-69761690D01*
X108973154Y-70237880D02*
X108973154Y-69237880D01*
X109354107Y-69237880D01*
X109449345Y-69285500D01*
X109496964Y-69333119D01*
X109544583Y-69428357D01*
X109544583Y-69571214D01*
X109496964Y-69666452D01*
X109449345Y-69714071D01*
X109354107Y-69761690D01*
X108973154Y-69761690D01*
X109877916Y-69237880D02*
X110496964Y-69237880D01*
X110163630Y-69618833D01*
X110306488Y-69618833D01*
X110401726Y-69666452D01*
X110449345Y-69714071D01*
X110496964Y-69809309D01*
X110496964Y-70047404D01*
X110449345Y-70142642D01*
X110401726Y-70190261D01*
X110306488Y-70237880D01*
X110020773Y-70237880D01*
X109925535Y-70190261D01*
X109877916Y-70142642D01*
X78113880Y-68604666D02*
X77637690Y-68938000D01*
X78113880Y-69176095D02*
X77113880Y-69176095D01*
X77113880Y-68795142D01*
X77161500Y-68699904D01*
X77209119Y-68652285D01*
X77304357Y-68604666D01*
X77447214Y-68604666D01*
X77542452Y-68652285D01*
X77590071Y-68699904D01*
X77637690Y-68795142D01*
X77637690Y-69176095D01*
X77209119Y-68223714D02*
X77161500Y-68176095D01*
X77113880Y-68080857D01*
X77113880Y-67842761D01*
X77161500Y-67747523D01*
X77209119Y-67699904D01*
X77304357Y-67652285D01*
X77399595Y-67652285D01*
X77542452Y-67699904D01*
X78113880Y-68271333D01*
X78113880Y-67652285D01*
X74938880Y-68604666D02*
X74462690Y-68938000D01*
X74938880Y-69176095D02*
X73938880Y-69176095D01*
X73938880Y-68795142D01*
X73986500Y-68699904D01*
X74034119Y-68652285D01*
X74129357Y-68604666D01*
X74272214Y-68604666D01*
X74367452Y-68652285D01*
X74415071Y-68699904D01*
X74462690Y-68795142D01*
X74462690Y-69176095D01*
X74938880Y-67652285D02*
X74938880Y-68223714D01*
X74938880Y-67938000D02*
X73938880Y-67938000D01*
X74081738Y-68033238D01*
X74176976Y-68128476D01*
X74224595Y-68223714D01*
X80595071Y-69233833D02*
X80595071Y-69567166D01*
X81118880Y-69567166D02*
X80118880Y-69567166D01*
X80118880Y-69090976D01*
X81118880Y-68186214D02*
X81118880Y-68757642D01*
X81118880Y-68471928D02*
X80118880Y-68471928D01*
X80261738Y-68567166D01*
X80356976Y-68662404D01*
X80404595Y-68757642D01*
X130182630Y-122151095D02*
X129182630Y-122151095D01*
X129182630Y-121913000D01*
X129230250Y-121770142D01*
X129325488Y-121674904D01*
X129420726Y-121627285D01*
X129611202Y-121579666D01*
X129754059Y-121579666D01*
X129944535Y-121627285D01*
X130039773Y-121674904D01*
X130135011Y-121770142D01*
X130182630Y-121913000D01*
X130182630Y-122151095D01*
X130182630Y-121103476D02*
X130182630Y-120913000D01*
X130135011Y-120817761D01*
X130087392Y-120770142D01*
X129944535Y-120674904D01*
X129754059Y-120627285D01*
X129373107Y-120627285D01*
X129277869Y-120674904D01*
X129230250Y-120722523D01*
X129182630Y-120817761D01*
X129182630Y-121008238D01*
X129230250Y-121103476D01*
X129277869Y-121151095D01*
X129373107Y-121198714D01*
X129611202Y-121198714D01*
X129706440Y-121151095D01*
X129754059Y-121103476D01*
X129801678Y-121008238D01*
X129801678Y-120817761D01*
X129754059Y-120722523D01*
X129706440Y-120674904D01*
X129611202Y-120627285D01*
X130182630Y-103101095D02*
X129182630Y-103101095D01*
X129182630Y-102863000D01*
X129230250Y-102720142D01*
X129325488Y-102624904D01*
X129420726Y-102577285D01*
X129611202Y-102529666D01*
X129754059Y-102529666D01*
X129944535Y-102577285D01*
X130039773Y-102624904D01*
X130135011Y-102720142D01*
X130182630Y-102863000D01*
X130182630Y-103101095D01*
X129611202Y-101958238D02*
X129563583Y-102053476D01*
X129515964Y-102101095D01*
X129420726Y-102148714D01*
X129373107Y-102148714D01*
X129277869Y-102101095D01*
X129230250Y-102053476D01*
X129182630Y-101958238D01*
X129182630Y-101767761D01*
X129230250Y-101672523D01*
X129277869Y-101624904D01*
X129373107Y-101577285D01*
X129420726Y-101577285D01*
X129515964Y-101624904D01*
X129563583Y-101672523D01*
X129611202Y-101767761D01*
X129611202Y-101958238D01*
X129658821Y-102053476D01*
X129706440Y-102101095D01*
X129801678Y-102148714D01*
X129992154Y-102148714D01*
X130087392Y-102101095D01*
X130135011Y-102053476D01*
X130182630Y-101958238D01*
X130182630Y-101767761D01*
X130135011Y-101672523D01*
X130087392Y-101624904D01*
X129992154Y-101577285D01*
X129801678Y-101577285D01*
X129706440Y-101624904D01*
X129658821Y-101672523D01*
X129611202Y-101767761D01*
X130182630Y-84051095D02*
X129182630Y-84051095D01*
X129182630Y-83813000D01*
X129230250Y-83670142D01*
X129325488Y-83574904D01*
X129420726Y-83527285D01*
X129611202Y-83479666D01*
X129754059Y-83479666D01*
X129944535Y-83527285D01*
X130039773Y-83574904D01*
X130135011Y-83670142D01*
X130182630Y-83813000D01*
X130182630Y-84051095D01*
X129182630Y-83146333D02*
X129182630Y-82479666D01*
X130182630Y-82908238D01*
X111132630Y-122151095D02*
X110132630Y-122151095D01*
X110132630Y-121913000D01*
X110180250Y-121770142D01*
X110275488Y-121674904D01*
X110370726Y-121627285D01*
X110561202Y-121579666D01*
X110704059Y-121579666D01*
X110894535Y-121627285D01*
X110989773Y-121674904D01*
X111085011Y-121770142D01*
X111132630Y-121913000D01*
X111132630Y-122151095D01*
X110132630Y-120722523D02*
X110132630Y-120913000D01*
X110180250Y-121008238D01*
X110227869Y-121055857D01*
X110370726Y-121151095D01*
X110561202Y-121198714D01*
X110942154Y-121198714D01*
X111037392Y-121151095D01*
X111085011Y-121103476D01*
X111132630Y-121008238D01*
X111132630Y-120817761D01*
X111085011Y-120722523D01*
X111037392Y-120674904D01*
X110942154Y-120627285D01*
X110704059Y-120627285D01*
X110608821Y-120674904D01*
X110561202Y-120722523D01*
X110513583Y-120817761D01*
X110513583Y-121008238D01*
X110561202Y-121103476D01*
X110608821Y-121151095D01*
X110704059Y-121198714D01*
X92082630Y-122151095D02*
X91082630Y-122151095D01*
X91082630Y-121913000D01*
X91130250Y-121770142D01*
X91225488Y-121674904D01*
X91320726Y-121627285D01*
X91511202Y-121579666D01*
X91654059Y-121579666D01*
X91844535Y-121627285D01*
X91939773Y-121674904D01*
X92035011Y-121770142D01*
X92082630Y-121913000D01*
X92082630Y-122151095D01*
X91082630Y-120674904D02*
X91082630Y-121151095D01*
X91558821Y-121198714D01*
X91511202Y-121151095D01*
X91463583Y-121055857D01*
X91463583Y-120817761D01*
X91511202Y-120722523D01*
X91558821Y-120674904D01*
X91654059Y-120627285D01*
X91892154Y-120627285D01*
X91987392Y-120674904D01*
X92035011Y-120722523D01*
X92082630Y-120817761D01*
X92082630Y-121055857D01*
X92035011Y-121151095D01*
X91987392Y-121198714D01*
X111132630Y-103101095D02*
X110132630Y-103101095D01*
X110132630Y-102863000D01*
X110180250Y-102720142D01*
X110275488Y-102624904D01*
X110370726Y-102577285D01*
X110561202Y-102529666D01*
X110704059Y-102529666D01*
X110894535Y-102577285D01*
X110989773Y-102624904D01*
X111085011Y-102720142D01*
X111132630Y-102863000D01*
X111132630Y-103101095D01*
X110465964Y-101672523D02*
X111132630Y-101672523D01*
X110085011Y-101910619D02*
X110799297Y-102148714D01*
X110799297Y-101529666D01*
X111132630Y-84051095D02*
X110132630Y-84051095D01*
X110132630Y-83813000D01*
X110180250Y-83670142D01*
X110275488Y-83574904D01*
X110370726Y-83527285D01*
X110561202Y-83479666D01*
X110704059Y-83479666D01*
X110894535Y-83527285D01*
X110989773Y-83574904D01*
X111085011Y-83670142D01*
X111132630Y-83813000D01*
X111132630Y-84051095D01*
X110132630Y-83146333D02*
X110132630Y-82527285D01*
X110513583Y-82860619D01*
X110513583Y-82717761D01*
X110561202Y-82622523D01*
X110608821Y-82574904D01*
X110704059Y-82527285D01*
X110942154Y-82527285D01*
X111037392Y-82574904D01*
X111085011Y-82622523D01*
X111132630Y-82717761D01*
X111132630Y-83003476D01*
X111085011Y-83098714D01*
X111037392Y-83146333D01*
X92082630Y-103101095D02*
X91082630Y-103101095D01*
X91082630Y-102863000D01*
X91130250Y-102720142D01*
X91225488Y-102624904D01*
X91320726Y-102577285D01*
X91511202Y-102529666D01*
X91654059Y-102529666D01*
X91844535Y-102577285D01*
X91939773Y-102624904D01*
X92035011Y-102720142D01*
X92082630Y-102863000D01*
X92082630Y-103101095D01*
X91177869Y-102148714D02*
X91130250Y-102101095D01*
X91082630Y-102005857D01*
X91082630Y-101767761D01*
X91130250Y-101672523D01*
X91177869Y-101624904D01*
X91273107Y-101577285D01*
X91368345Y-101577285D01*
X91511202Y-101624904D01*
X92082630Y-102196333D01*
X92082630Y-101577285D01*
X92082630Y-84051095D02*
X91082630Y-84051095D01*
X91082630Y-83813000D01*
X91130250Y-83670142D01*
X91225488Y-83574904D01*
X91320726Y-83527285D01*
X91511202Y-83479666D01*
X91654059Y-83479666D01*
X91844535Y-83527285D01*
X91939773Y-83574904D01*
X92035011Y-83670142D01*
X92082630Y-83813000D01*
X92082630Y-84051095D01*
X92082630Y-82527285D02*
X92082630Y-83098714D01*
X92082630Y-82813000D02*
X91082630Y-82813000D01*
X91225488Y-82908238D01*
X91320726Y-83003476D01*
X91368345Y-83098714D01*
X124276583Y-68747642D02*
X124228964Y-68795261D01*
X124086107Y-68842880D01*
X123990869Y-68842880D01*
X123848011Y-68795261D01*
X123752773Y-68700023D01*
X123705154Y-68604785D01*
X123657535Y-68414309D01*
X123657535Y-68271452D01*
X123705154Y-68080976D01*
X123752773Y-67985738D01*
X123848011Y-67890500D01*
X123990869Y-67842880D01*
X124086107Y-67842880D01*
X124228964Y-67890500D01*
X124276583Y-67938119D01*
X124609916Y-67842880D02*
X125276583Y-67842880D01*
X124848011Y-68842880D01*
X109544583Y-69382642D02*
X109496964Y-69430261D01*
X109354107Y-69477880D01*
X109258869Y-69477880D01*
X109116011Y-69430261D01*
X109020773Y-69335023D01*
X108973154Y-69239785D01*
X108925535Y-69049309D01*
X108925535Y-68906452D01*
X108973154Y-68715976D01*
X109020773Y-68620738D01*
X109116011Y-68525500D01*
X109258869Y-68477880D01*
X109354107Y-68477880D01*
X109496964Y-68525500D01*
X109544583Y-68573119D01*
X110401726Y-68477880D02*
X110211250Y-68477880D01*
X110116011Y-68525500D01*
X110068392Y-68573119D01*
X109973154Y-68715976D01*
X109925535Y-68906452D01*
X109925535Y-69287404D01*
X109973154Y-69382642D01*
X110020773Y-69430261D01*
X110116011Y-69477880D01*
X110306488Y-69477880D01*
X110401726Y-69430261D01*
X110449345Y-69382642D01*
X110496964Y-69287404D01*
X110496964Y-69049309D01*
X110449345Y-68954071D01*
X110401726Y-68906452D01*
X110306488Y-68858833D01*
X110116011Y-68858833D01*
X110020773Y-68906452D01*
X109973154Y-68954071D01*
X109925535Y-69049309D01*
X124276583Y-58587642D02*
X124228964Y-58635261D01*
X124086107Y-58682880D01*
X123990869Y-58682880D01*
X123848011Y-58635261D01*
X123752773Y-58540023D01*
X123705154Y-58444785D01*
X123657535Y-58254309D01*
X123657535Y-58111452D01*
X123705154Y-57920976D01*
X123752773Y-57825738D01*
X123848011Y-57730500D01*
X123990869Y-57682880D01*
X124086107Y-57682880D01*
X124228964Y-57730500D01*
X124276583Y-57778119D01*
X125181345Y-57682880D02*
X124705154Y-57682880D01*
X124657535Y-58159071D01*
X124705154Y-58111452D01*
X124800392Y-58063833D01*
X125038488Y-58063833D01*
X125133726Y-58111452D01*
X125181345Y-58159071D01*
X125228964Y-58254309D01*
X125228964Y-58492404D01*
X125181345Y-58587642D01*
X125133726Y-58635261D01*
X125038488Y-58682880D01*
X124800392Y-58682880D01*
X124705154Y-58635261D01*
X124657535Y-58587642D01*
X124276583Y-65318642D02*
X124228964Y-65366261D01*
X124086107Y-65413880D01*
X123990869Y-65413880D01*
X123848011Y-65366261D01*
X123752773Y-65271023D01*
X123705154Y-65175785D01*
X123657535Y-64985309D01*
X123657535Y-64842452D01*
X123705154Y-64651976D01*
X123752773Y-64556738D01*
X123848011Y-64461500D01*
X123990869Y-64413880D01*
X124086107Y-64413880D01*
X124228964Y-64461500D01*
X124276583Y-64509119D01*
X125133726Y-64747214D02*
X125133726Y-65413880D01*
X124895630Y-64366261D02*
X124657535Y-65080547D01*
X125276583Y-65080547D01*
X118324333Y-62649642D02*
X118276714Y-62697261D01*
X118133857Y-62744880D01*
X118038619Y-62744880D01*
X117895761Y-62697261D01*
X117800523Y-62602023D01*
X117752904Y-62506785D01*
X117705285Y-62316309D01*
X117705285Y-62173452D01*
X117752904Y-61982976D01*
X117800523Y-61887738D01*
X117895761Y-61792500D01*
X118038619Y-61744880D01*
X118133857Y-61744880D01*
X118276714Y-61792500D01*
X118324333Y-61840119D01*
X118657666Y-61744880D02*
X119276714Y-61744880D01*
X118943380Y-62125833D01*
X119086238Y-62125833D01*
X119181476Y-62173452D01*
X119229095Y-62221071D01*
X119276714Y-62316309D01*
X119276714Y-62554404D01*
X119229095Y-62649642D01*
X119181476Y-62697261D01*
X119086238Y-62744880D01*
X118800523Y-62744880D01*
X118705285Y-62697261D01*
X118657666Y-62649642D01*
X118307583Y-68112642D02*
X118259964Y-68160261D01*
X118117107Y-68207880D01*
X118021869Y-68207880D01*
X117879011Y-68160261D01*
X117783773Y-68065023D01*
X117736154Y-67969785D01*
X117688535Y-67779309D01*
X117688535Y-67636452D01*
X117736154Y-67445976D01*
X117783773Y-67350738D01*
X117879011Y-67255500D01*
X118021869Y-67207880D01*
X118117107Y-67207880D01*
X118259964Y-67255500D01*
X118307583Y-67303119D01*
X118688535Y-67303119D02*
X118736154Y-67255500D01*
X118831392Y-67207880D01*
X119069488Y-67207880D01*
X119164726Y-67255500D01*
X119212345Y-67303119D01*
X119259964Y-67398357D01*
X119259964Y-67493595D01*
X119212345Y-67636452D01*
X118640916Y-68207880D01*
X119259964Y-68207880D01*
X124276583Y-62016642D02*
X124228964Y-62064261D01*
X124086107Y-62111880D01*
X123990869Y-62111880D01*
X123848011Y-62064261D01*
X123752773Y-61969023D01*
X123705154Y-61873785D01*
X123657535Y-61683309D01*
X123657535Y-61540452D01*
X123705154Y-61349976D01*
X123752773Y-61254738D01*
X123848011Y-61159500D01*
X123990869Y-61111880D01*
X124086107Y-61111880D01*
X124228964Y-61159500D01*
X124276583Y-61207119D01*
X125228964Y-62111880D02*
X124657535Y-62111880D01*
X124943250Y-62111880D02*
X124943250Y-61111880D01*
X124848011Y-61254738D01*
X124752773Y-61349976D01*
X124657535Y-61397595D01*
%LPC*%
D12*
X77648000Y-62412000D03*
X78448000Y-62412000D03*
X79248000Y-62412000D03*
X80048000Y-62412000D03*
X80848000Y-62412000D03*
D13*
X82898000Y-62412000D03*
X75598000Y-62412000D03*
X75598000Y-57912000D03*
X82898000Y-57912000D03*
D14*
X119534750Y-65862750D03*
X117334750Y-65862750D03*
X117334750Y-64162750D03*
X119534750Y-64162750D03*
D15*
X88692750Y-69119250D03*
X88692750Y-68319250D03*
X88692750Y-67519250D03*
X88692750Y-66719250D03*
X88692750Y-65919250D03*
X88692750Y-65119250D03*
X88692750Y-64319250D03*
X88692750Y-63519250D03*
X88692750Y-62719250D03*
X88692750Y-61919250D03*
X88692750Y-61119250D03*
D16*
X90392750Y-59419250D03*
X91192750Y-59419250D03*
X91992750Y-59419250D03*
X92792750Y-59419250D03*
X93592750Y-59419250D03*
X94392750Y-59419250D03*
X95192750Y-59419250D03*
X95992750Y-59419250D03*
X96792750Y-59419250D03*
X97592750Y-59419250D03*
X98392750Y-59419250D03*
D15*
X100092750Y-61119250D03*
X100092750Y-61919250D03*
X100092750Y-62719250D03*
X100092750Y-63519250D03*
X100092750Y-64319250D03*
X100092750Y-65119250D03*
X100092750Y-65919250D03*
X100092750Y-66719250D03*
X100092750Y-67519250D03*
X100092750Y-68319250D03*
X100092750Y-69119250D03*
D16*
X98392750Y-70819250D03*
X97592750Y-70819250D03*
X96792750Y-70819250D03*
X95992750Y-70819250D03*
X95192750Y-70819250D03*
X94392750Y-70819250D03*
X93592750Y-70819250D03*
X92792750Y-70819250D03*
X91992750Y-70819250D03*
X91192750Y-70819250D03*
X90392750Y-70819250D03*
D17*
X106786750Y-63889500D03*
X112986750Y-60189500D03*
X106786750Y-60189500D03*
X112986750Y-63889500D03*
D18*
G36*
X86264891Y-58962297D02*
G01*
X86291028Y-58966174D01*
X86316659Y-58972594D01*
X86341538Y-58981495D01*
X86365424Y-58992793D01*
X86388087Y-59006377D01*
X86409310Y-59022117D01*
X86428889Y-59039861D01*
X86446633Y-59059440D01*
X86462373Y-59080663D01*
X86475957Y-59103326D01*
X86487255Y-59127212D01*
X86496156Y-59152091D01*
X86502576Y-59177722D01*
X86506453Y-59203859D01*
X86507750Y-59230250D01*
X86507750Y-59768750D01*
X86506453Y-59795141D01*
X86502576Y-59821278D01*
X86496156Y-59846909D01*
X86487255Y-59871788D01*
X86475957Y-59895674D01*
X86462373Y-59918337D01*
X86446633Y-59939560D01*
X86428889Y-59959139D01*
X86409310Y-59976883D01*
X86388087Y-59992623D01*
X86365424Y-60006207D01*
X86341538Y-60017505D01*
X86316659Y-60026406D01*
X86291028Y-60032826D01*
X86264891Y-60036703D01*
X86238500Y-60038000D01*
X85275000Y-60038000D01*
X85248609Y-60036703D01*
X85222472Y-60032826D01*
X85196841Y-60026406D01*
X85171962Y-60017505D01*
X85148076Y-60006207D01*
X85125413Y-59992623D01*
X85104190Y-59976883D01*
X85084611Y-59959139D01*
X85066867Y-59939560D01*
X85051127Y-59918337D01*
X85037543Y-59895674D01*
X85026245Y-59871788D01*
X85017344Y-59846909D01*
X85010924Y-59821278D01*
X85007047Y-59795141D01*
X85005750Y-59768750D01*
X85005750Y-59230250D01*
X85007047Y-59203859D01*
X85010924Y-59177722D01*
X85017344Y-59152091D01*
X85026245Y-59127212D01*
X85037543Y-59103326D01*
X85051127Y-59080663D01*
X85066867Y-59059440D01*
X85084611Y-59039861D01*
X85104190Y-59022117D01*
X85125413Y-59006377D01*
X85148076Y-58992793D01*
X85171962Y-58981495D01*
X85196841Y-58972594D01*
X85222472Y-58966174D01*
X85248609Y-58962297D01*
X85275000Y-58961000D01*
X86238500Y-58961000D01*
X86264891Y-58962297D01*
X86264891Y-58962297D01*
G37*
D19*
X85756750Y-59499500D03*
D18*
G36*
X86264891Y-60837297D02*
G01*
X86291028Y-60841174D01*
X86316659Y-60847594D01*
X86341538Y-60856495D01*
X86365424Y-60867793D01*
X86388087Y-60881377D01*
X86409310Y-60897117D01*
X86428889Y-60914861D01*
X86446633Y-60934440D01*
X86462373Y-60955663D01*
X86475957Y-60978326D01*
X86487255Y-61002212D01*
X86496156Y-61027091D01*
X86502576Y-61052722D01*
X86506453Y-61078859D01*
X86507750Y-61105250D01*
X86507750Y-61643750D01*
X86506453Y-61670141D01*
X86502576Y-61696278D01*
X86496156Y-61721909D01*
X86487255Y-61746788D01*
X86475957Y-61770674D01*
X86462373Y-61793337D01*
X86446633Y-61814560D01*
X86428889Y-61834139D01*
X86409310Y-61851883D01*
X86388087Y-61867623D01*
X86365424Y-61881207D01*
X86341538Y-61892505D01*
X86316659Y-61901406D01*
X86291028Y-61907826D01*
X86264891Y-61911703D01*
X86238500Y-61913000D01*
X85275000Y-61913000D01*
X85248609Y-61911703D01*
X85222472Y-61907826D01*
X85196841Y-61901406D01*
X85171962Y-61892505D01*
X85148076Y-61881207D01*
X85125413Y-61867623D01*
X85104190Y-61851883D01*
X85084611Y-61834139D01*
X85066867Y-61814560D01*
X85051127Y-61793337D01*
X85037543Y-61770674D01*
X85026245Y-61746788D01*
X85017344Y-61721909D01*
X85010924Y-61696278D01*
X85007047Y-61670141D01*
X85005750Y-61643750D01*
X85005750Y-61105250D01*
X85007047Y-61078859D01*
X85010924Y-61052722D01*
X85017344Y-61027091D01*
X85026245Y-61002212D01*
X85037543Y-60978326D01*
X85051127Y-60955663D01*
X85066867Y-60934440D01*
X85084611Y-60914861D01*
X85104190Y-60897117D01*
X85125413Y-60881377D01*
X85148076Y-60867793D01*
X85171962Y-60856495D01*
X85196841Y-60847594D01*
X85222472Y-60841174D01*
X85248609Y-60837297D01*
X85275000Y-60836000D01*
X86238500Y-60836000D01*
X86264891Y-60837297D01*
X86264891Y-60837297D01*
G37*
D19*
X85756750Y-61374500D03*
D18*
G36*
X109069391Y-67385797D02*
G01*
X109095528Y-67389674D01*
X109121159Y-67396094D01*
X109146038Y-67404995D01*
X109169924Y-67416293D01*
X109192587Y-67429877D01*
X109213810Y-67445617D01*
X109233389Y-67463361D01*
X109251133Y-67482940D01*
X109266873Y-67504163D01*
X109280457Y-67526826D01*
X109291755Y-67550712D01*
X109300656Y-67575591D01*
X109307076Y-67601222D01*
X109310953Y-67627359D01*
X109312250Y-67653750D01*
X109312250Y-68617250D01*
X109310953Y-68643641D01*
X109307076Y-68669778D01*
X109300656Y-68695409D01*
X109291755Y-68720288D01*
X109280457Y-68744174D01*
X109266873Y-68766837D01*
X109251133Y-68788060D01*
X109233389Y-68807639D01*
X109213810Y-68825383D01*
X109192587Y-68841123D01*
X109169924Y-68854707D01*
X109146038Y-68866005D01*
X109121159Y-68874906D01*
X109095528Y-68881326D01*
X109069391Y-68885203D01*
X109043000Y-68886500D01*
X108504500Y-68886500D01*
X108478109Y-68885203D01*
X108451972Y-68881326D01*
X108426341Y-68874906D01*
X108401462Y-68866005D01*
X108377576Y-68854707D01*
X108354913Y-68841123D01*
X108333690Y-68825383D01*
X108314111Y-68807639D01*
X108296367Y-68788060D01*
X108280627Y-68766837D01*
X108267043Y-68744174D01*
X108255745Y-68720288D01*
X108246844Y-68695409D01*
X108240424Y-68669778D01*
X108236547Y-68643641D01*
X108235250Y-68617250D01*
X108235250Y-67653750D01*
X108236547Y-67627359D01*
X108240424Y-67601222D01*
X108246844Y-67575591D01*
X108255745Y-67550712D01*
X108267043Y-67526826D01*
X108280627Y-67504163D01*
X108296367Y-67482940D01*
X108314111Y-67463361D01*
X108333690Y-67445617D01*
X108354913Y-67429877D01*
X108377576Y-67416293D01*
X108401462Y-67404995D01*
X108426341Y-67396094D01*
X108451972Y-67389674D01*
X108478109Y-67385797D01*
X108504500Y-67384500D01*
X109043000Y-67384500D01*
X109069391Y-67385797D01*
X109069391Y-67385797D01*
G37*
D19*
X108773750Y-68135500D03*
D18*
G36*
X110944391Y-67385797D02*
G01*
X110970528Y-67389674D01*
X110996159Y-67396094D01*
X111021038Y-67404995D01*
X111044924Y-67416293D01*
X111067587Y-67429877D01*
X111088810Y-67445617D01*
X111108389Y-67463361D01*
X111126133Y-67482940D01*
X111141873Y-67504163D01*
X111155457Y-67526826D01*
X111166755Y-67550712D01*
X111175656Y-67575591D01*
X111182076Y-67601222D01*
X111185953Y-67627359D01*
X111187250Y-67653750D01*
X111187250Y-68617250D01*
X111185953Y-68643641D01*
X111182076Y-68669778D01*
X111175656Y-68695409D01*
X111166755Y-68720288D01*
X111155457Y-68744174D01*
X111141873Y-68766837D01*
X111126133Y-68788060D01*
X111108389Y-68807639D01*
X111088810Y-68825383D01*
X111067587Y-68841123D01*
X111044924Y-68854707D01*
X111021038Y-68866005D01*
X110996159Y-68874906D01*
X110970528Y-68881326D01*
X110944391Y-68885203D01*
X110918000Y-68886500D01*
X110379500Y-68886500D01*
X110353109Y-68885203D01*
X110326972Y-68881326D01*
X110301341Y-68874906D01*
X110276462Y-68866005D01*
X110252576Y-68854707D01*
X110229913Y-68841123D01*
X110208690Y-68825383D01*
X110189111Y-68807639D01*
X110171367Y-68788060D01*
X110155627Y-68766837D01*
X110142043Y-68744174D01*
X110130745Y-68720288D01*
X110121844Y-68695409D01*
X110115424Y-68669778D01*
X110111547Y-68643641D01*
X110110250Y-68617250D01*
X110110250Y-67653750D01*
X110111547Y-67627359D01*
X110115424Y-67601222D01*
X110121844Y-67575591D01*
X110130745Y-67550712D01*
X110142043Y-67526826D01*
X110155627Y-67504163D01*
X110171367Y-67482940D01*
X110189111Y-67463361D01*
X110208690Y-67445617D01*
X110229913Y-67429877D01*
X110252576Y-67416293D01*
X110276462Y-67404995D01*
X110301341Y-67396094D01*
X110326972Y-67389674D01*
X110353109Y-67385797D01*
X110379500Y-67384500D01*
X110918000Y-67384500D01*
X110944391Y-67385797D01*
X110944391Y-67385797D01*
G37*
D19*
X110648750Y-68135500D03*
D18*
G36*
X79819641Y-68838297D02*
G01*
X79845778Y-68842174D01*
X79871409Y-68848594D01*
X79896288Y-68857495D01*
X79920174Y-68868793D01*
X79942837Y-68882377D01*
X79964060Y-68898117D01*
X79983639Y-68915861D01*
X80001383Y-68935440D01*
X80017123Y-68956663D01*
X80030707Y-68979326D01*
X80042005Y-69003212D01*
X80050906Y-69028091D01*
X80057326Y-69053722D01*
X80061203Y-69079859D01*
X80062500Y-69106250D01*
X80062500Y-69644750D01*
X80061203Y-69671141D01*
X80057326Y-69697278D01*
X80050906Y-69722909D01*
X80042005Y-69747788D01*
X80030707Y-69771674D01*
X80017123Y-69794337D01*
X80001383Y-69815560D01*
X79983639Y-69835139D01*
X79964060Y-69852883D01*
X79942837Y-69868623D01*
X79920174Y-69882207D01*
X79896288Y-69893505D01*
X79871409Y-69902406D01*
X79845778Y-69908826D01*
X79819641Y-69912703D01*
X79793250Y-69914000D01*
X78829750Y-69914000D01*
X78803359Y-69912703D01*
X78777222Y-69908826D01*
X78751591Y-69902406D01*
X78726712Y-69893505D01*
X78702826Y-69882207D01*
X78680163Y-69868623D01*
X78658940Y-69852883D01*
X78639361Y-69835139D01*
X78621617Y-69815560D01*
X78605877Y-69794337D01*
X78592293Y-69771674D01*
X78580995Y-69747788D01*
X78572094Y-69722909D01*
X78565674Y-69697278D01*
X78561797Y-69671141D01*
X78560500Y-69644750D01*
X78560500Y-69106250D01*
X78561797Y-69079859D01*
X78565674Y-69053722D01*
X78572094Y-69028091D01*
X78580995Y-69003212D01*
X78592293Y-68979326D01*
X78605877Y-68956663D01*
X78621617Y-68935440D01*
X78639361Y-68915861D01*
X78658940Y-68898117D01*
X78680163Y-68882377D01*
X78702826Y-68868793D01*
X78726712Y-68857495D01*
X78751591Y-68848594D01*
X78777222Y-68842174D01*
X78803359Y-68838297D01*
X78829750Y-68837000D01*
X79793250Y-68837000D01*
X79819641Y-68838297D01*
X79819641Y-68838297D01*
G37*
D19*
X79311500Y-69375500D03*
D18*
G36*
X79819641Y-66963297D02*
G01*
X79845778Y-66967174D01*
X79871409Y-66973594D01*
X79896288Y-66982495D01*
X79920174Y-66993793D01*
X79942837Y-67007377D01*
X79964060Y-67023117D01*
X79983639Y-67040861D01*
X80001383Y-67060440D01*
X80017123Y-67081663D01*
X80030707Y-67104326D01*
X80042005Y-67128212D01*
X80050906Y-67153091D01*
X80057326Y-67178722D01*
X80061203Y-67204859D01*
X80062500Y-67231250D01*
X80062500Y-67769750D01*
X80061203Y-67796141D01*
X80057326Y-67822278D01*
X80050906Y-67847909D01*
X80042005Y-67872788D01*
X80030707Y-67896674D01*
X80017123Y-67919337D01*
X80001383Y-67940560D01*
X79983639Y-67960139D01*
X79964060Y-67977883D01*
X79942837Y-67993623D01*
X79920174Y-68007207D01*
X79896288Y-68018505D01*
X79871409Y-68027406D01*
X79845778Y-68033826D01*
X79819641Y-68037703D01*
X79793250Y-68039000D01*
X78829750Y-68039000D01*
X78803359Y-68037703D01*
X78777222Y-68033826D01*
X78751591Y-68027406D01*
X78726712Y-68018505D01*
X78702826Y-68007207D01*
X78680163Y-67993623D01*
X78658940Y-67977883D01*
X78639361Y-67960139D01*
X78621617Y-67940560D01*
X78605877Y-67919337D01*
X78592293Y-67896674D01*
X78580995Y-67872788D01*
X78572094Y-67847909D01*
X78565674Y-67822278D01*
X78561797Y-67796141D01*
X78560500Y-67769750D01*
X78560500Y-67231250D01*
X78561797Y-67204859D01*
X78565674Y-67178722D01*
X78572094Y-67153091D01*
X78580995Y-67128212D01*
X78592293Y-67104326D01*
X78605877Y-67081663D01*
X78621617Y-67060440D01*
X78639361Y-67040861D01*
X78658940Y-67023117D01*
X78680163Y-67007377D01*
X78702826Y-66993793D01*
X78726712Y-66982495D01*
X78751591Y-66973594D01*
X78777222Y-66967174D01*
X78803359Y-66963297D01*
X78829750Y-66962000D01*
X79793250Y-66962000D01*
X79819641Y-66963297D01*
X79819641Y-66963297D01*
G37*
D19*
X79311500Y-67500500D03*
D18*
G36*
X76644641Y-68838297D02*
G01*
X76670778Y-68842174D01*
X76696409Y-68848594D01*
X76721288Y-68857495D01*
X76745174Y-68868793D01*
X76767837Y-68882377D01*
X76789060Y-68898117D01*
X76808639Y-68915861D01*
X76826383Y-68935440D01*
X76842123Y-68956663D01*
X76855707Y-68979326D01*
X76867005Y-69003212D01*
X76875906Y-69028091D01*
X76882326Y-69053722D01*
X76886203Y-69079859D01*
X76887500Y-69106250D01*
X76887500Y-69644750D01*
X76886203Y-69671141D01*
X76882326Y-69697278D01*
X76875906Y-69722909D01*
X76867005Y-69747788D01*
X76855707Y-69771674D01*
X76842123Y-69794337D01*
X76826383Y-69815560D01*
X76808639Y-69835139D01*
X76789060Y-69852883D01*
X76767837Y-69868623D01*
X76745174Y-69882207D01*
X76721288Y-69893505D01*
X76696409Y-69902406D01*
X76670778Y-69908826D01*
X76644641Y-69912703D01*
X76618250Y-69914000D01*
X75654750Y-69914000D01*
X75628359Y-69912703D01*
X75602222Y-69908826D01*
X75576591Y-69902406D01*
X75551712Y-69893505D01*
X75527826Y-69882207D01*
X75505163Y-69868623D01*
X75483940Y-69852883D01*
X75464361Y-69835139D01*
X75446617Y-69815560D01*
X75430877Y-69794337D01*
X75417293Y-69771674D01*
X75405995Y-69747788D01*
X75397094Y-69722909D01*
X75390674Y-69697278D01*
X75386797Y-69671141D01*
X75385500Y-69644750D01*
X75385500Y-69106250D01*
X75386797Y-69079859D01*
X75390674Y-69053722D01*
X75397094Y-69028091D01*
X75405995Y-69003212D01*
X75417293Y-68979326D01*
X75430877Y-68956663D01*
X75446617Y-68935440D01*
X75464361Y-68915861D01*
X75483940Y-68898117D01*
X75505163Y-68882377D01*
X75527826Y-68868793D01*
X75551712Y-68857495D01*
X75576591Y-68848594D01*
X75602222Y-68842174D01*
X75628359Y-68838297D01*
X75654750Y-68837000D01*
X76618250Y-68837000D01*
X76644641Y-68838297D01*
X76644641Y-68838297D01*
G37*
D19*
X76136500Y-69375500D03*
D18*
G36*
X76644641Y-66963297D02*
G01*
X76670778Y-66967174D01*
X76696409Y-66973594D01*
X76721288Y-66982495D01*
X76745174Y-66993793D01*
X76767837Y-67007377D01*
X76789060Y-67023117D01*
X76808639Y-67040861D01*
X76826383Y-67060440D01*
X76842123Y-67081663D01*
X76855707Y-67104326D01*
X76867005Y-67128212D01*
X76875906Y-67153091D01*
X76882326Y-67178722D01*
X76886203Y-67204859D01*
X76887500Y-67231250D01*
X76887500Y-67769750D01*
X76886203Y-67796141D01*
X76882326Y-67822278D01*
X76875906Y-67847909D01*
X76867005Y-67872788D01*
X76855707Y-67896674D01*
X76842123Y-67919337D01*
X76826383Y-67940560D01*
X76808639Y-67960139D01*
X76789060Y-67977883D01*
X76767837Y-67993623D01*
X76745174Y-68007207D01*
X76721288Y-68018505D01*
X76696409Y-68027406D01*
X76670778Y-68033826D01*
X76644641Y-68037703D01*
X76618250Y-68039000D01*
X75654750Y-68039000D01*
X75628359Y-68037703D01*
X75602222Y-68033826D01*
X75576591Y-68027406D01*
X75551712Y-68018505D01*
X75527826Y-68007207D01*
X75505163Y-67993623D01*
X75483940Y-67977883D01*
X75464361Y-67960139D01*
X75446617Y-67940560D01*
X75430877Y-67919337D01*
X75417293Y-67896674D01*
X75405995Y-67872788D01*
X75397094Y-67847909D01*
X75390674Y-67822278D01*
X75386797Y-67796141D01*
X75385500Y-67769750D01*
X75385500Y-67231250D01*
X75386797Y-67204859D01*
X75390674Y-67178722D01*
X75397094Y-67153091D01*
X75405995Y-67128212D01*
X75417293Y-67104326D01*
X75430877Y-67081663D01*
X75446617Y-67060440D01*
X75464361Y-67040861D01*
X75483940Y-67023117D01*
X75505163Y-67007377D01*
X75527826Y-66993793D01*
X75551712Y-66982495D01*
X75576591Y-66973594D01*
X75602222Y-66967174D01*
X75628359Y-66963297D01*
X75654750Y-66962000D01*
X76618250Y-66962000D01*
X76644641Y-66963297D01*
X76644641Y-66963297D01*
G37*
D19*
X76136500Y-67500500D03*
D20*
X124872750Y-121475500D03*
X114712750Y-121475500D03*
D21*
X119792750Y-121475500D03*
D20*
X105822750Y-121475500D03*
X95662750Y-121475500D03*
D21*
X100742750Y-121475500D03*
D20*
X86772750Y-121475500D03*
X76612750Y-121475500D03*
D21*
X81692750Y-121475500D03*
D20*
X124872750Y-102425500D03*
X114712750Y-102425500D03*
D21*
X119792750Y-102425500D03*
D20*
X105822750Y-102425500D03*
X95662750Y-102425500D03*
D21*
X100742750Y-102425500D03*
D20*
X86772750Y-102425500D03*
X76612750Y-102425500D03*
D21*
X81692750Y-102425500D03*
D20*
X124872750Y-83375500D03*
X114712750Y-83375500D03*
D21*
X119792750Y-83375500D03*
D20*
X105822750Y-83375500D03*
X95662750Y-83375500D03*
D21*
X100742750Y-83375500D03*
D20*
X86772750Y-83375500D03*
X76612750Y-83375500D03*
D21*
X81692750Y-83375500D03*
D18*
G36*
X83168604Y-69625802D02*
G01*
X83194852Y-69629696D01*
X83220593Y-69636143D01*
X83245578Y-69645083D01*
X83269566Y-69656428D01*
X83292326Y-69670071D01*
X83313640Y-69685878D01*
X83333302Y-69703698D01*
X83351122Y-69723360D01*
X83366929Y-69744674D01*
X83380572Y-69767434D01*
X83391917Y-69791422D01*
X83400857Y-69816407D01*
X83407304Y-69842148D01*
X83411198Y-69868396D01*
X83412500Y-69894900D01*
X83412500Y-70706100D01*
X83411198Y-70732604D01*
X83407304Y-70758852D01*
X83400857Y-70784593D01*
X83391917Y-70809578D01*
X83380572Y-70833566D01*
X83366929Y-70856326D01*
X83351122Y-70877640D01*
X83333302Y-70897302D01*
X83313640Y-70915122D01*
X83292326Y-70930929D01*
X83269566Y-70944572D01*
X83245578Y-70955917D01*
X83220593Y-70964857D01*
X83194852Y-70971304D01*
X83168604Y-70975198D01*
X83142100Y-70976500D01*
X81830900Y-70976500D01*
X81804396Y-70975198D01*
X81778148Y-70971304D01*
X81752407Y-70964857D01*
X81727422Y-70955917D01*
X81703434Y-70944572D01*
X81680674Y-70930929D01*
X81659360Y-70915122D01*
X81639698Y-70897302D01*
X81621878Y-70877640D01*
X81606071Y-70856326D01*
X81592428Y-70833566D01*
X81581083Y-70809578D01*
X81572143Y-70784593D01*
X81565696Y-70758852D01*
X81561802Y-70732604D01*
X81560500Y-70706100D01*
X81560500Y-69894900D01*
X81561802Y-69868396D01*
X81565696Y-69842148D01*
X81572143Y-69816407D01*
X81581083Y-69791422D01*
X81592428Y-69767434D01*
X81606071Y-69744674D01*
X81621878Y-69723360D01*
X81639698Y-69703698D01*
X81659360Y-69685878D01*
X81680674Y-69670071D01*
X81703434Y-69656428D01*
X81727422Y-69645083D01*
X81752407Y-69636143D01*
X81778148Y-69629696D01*
X81804396Y-69625802D01*
X81830900Y-69624500D01*
X83142100Y-69624500D01*
X83168604Y-69625802D01*
X83168604Y-69625802D01*
G37*
D22*
X82486500Y-70300500D03*
D18*
G36*
X83168604Y-66825802D02*
G01*
X83194852Y-66829696D01*
X83220593Y-66836143D01*
X83245578Y-66845083D01*
X83269566Y-66856428D01*
X83292326Y-66870071D01*
X83313640Y-66885878D01*
X83333302Y-66903698D01*
X83351122Y-66923360D01*
X83366929Y-66944674D01*
X83380572Y-66967434D01*
X83391917Y-66991422D01*
X83400857Y-67016407D01*
X83407304Y-67042148D01*
X83411198Y-67068396D01*
X83412500Y-67094900D01*
X83412500Y-67906100D01*
X83411198Y-67932604D01*
X83407304Y-67958852D01*
X83400857Y-67984593D01*
X83391917Y-68009578D01*
X83380572Y-68033566D01*
X83366929Y-68056326D01*
X83351122Y-68077640D01*
X83333302Y-68097302D01*
X83313640Y-68115122D01*
X83292326Y-68130929D01*
X83269566Y-68144572D01*
X83245578Y-68155917D01*
X83220593Y-68164857D01*
X83194852Y-68171304D01*
X83168604Y-68175198D01*
X83142100Y-68176500D01*
X81830900Y-68176500D01*
X81804396Y-68175198D01*
X81778148Y-68171304D01*
X81752407Y-68164857D01*
X81727422Y-68155917D01*
X81703434Y-68144572D01*
X81680674Y-68130929D01*
X81659360Y-68115122D01*
X81639698Y-68097302D01*
X81621878Y-68077640D01*
X81606071Y-68056326D01*
X81592428Y-68033566D01*
X81581083Y-68009578D01*
X81572143Y-67984593D01*
X81565696Y-67958852D01*
X81561802Y-67932604D01*
X81560500Y-67906100D01*
X81560500Y-67094900D01*
X81561802Y-67068396D01*
X81565696Y-67042148D01*
X81572143Y-67016407D01*
X81581083Y-66991422D01*
X81592428Y-66967434D01*
X81606071Y-66944674D01*
X81621878Y-66923360D01*
X81639698Y-66903698D01*
X81659360Y-66885878D01*
X81680674Y-66870071D01*
X81703434Y-66856428D01*
X81727422Y-66845083D01*
X81752407Y-66836143D01*
X81778148Y-66829696D01*
X81804396Y-66825802D01*
X81830900Y-66824500D01*
X83142100Y-66824500D01*
X83168604Y-66825802D01*
X83168604Y-66825802D01*
G37*
D22*
X82486500Y-67500500D03*
D23*
X127730250Y-123063000D03*
X127730250Y-119763000D03*
X127730250Y-104013000D03*
X127730250Y-100713000D03*
X127730250Y-84963000D03*
X127730250Y-81663000D03*
X108680250Y-123063000D03*
X108680250Y-119763000D03*
X89630250Y-123063000D03*
X89630250Y-119763000D03*
X108680250Y-104013000D03*
X108680250Y-100713000D03*
X108680250Y-84963000D03*
X108680250Y-81663000D03*
X89630250Y-104013000D03*
X89630250Y-100713000D03*
X89630250Y-84963000D03*
X89630250Y-81663000D03*
D18*
G36*
X125676391Y-69290797D02*
G01*
X125702528Y-69294674D01*
X125728159Y-69301094D01*
X125753038Y-69309995D01*
X125776924Y-69321293D01*
X125799587Y-69334877D01*
X125820810Y-69350617D01*
X125840389Y-69368361D01*
X125858133Y-69387940D01*
X125873873Y-69409163D01*
X125887457Y-69431826D01*
X125898755Y-69455712D01*
X125907656Y-69480591D01*
X125914076Y-69506222D01*
X125917953Y-69532359D01*
X125919250Y-69558750D01*
X125919250Y-70522250D01*
X125917953Y-70548641D01*
X125914076Y-70574778D01*
X125907656Y-70600409D01*
X125898755Y-70625288D01*
X125887457Y-70649174D01*
X125873873Y-70671837D01*
X125858133Y-70693060D01*
X125840389Y-70712639D01*
X125820810Y-70730383D01*
X125799587Y-70746123D01*
X125776924Y-70759707D01*
X125753038Y-70771005D01*
X125728159Y-70779906D01*
X125702528Y-70786326D01*
X125676391Y-70790203D01*
X125650000Y-70791500D01*
X125111500Y-70791500D01*
X125085109Y-70790203D01*
X125058972Y-70786326D01*
X125033341Y-70779906D01*
X125008462Y-70771005D01*
X124984576Y-70759707D01*
X124961913Y-70746123D01*
X124940690Y-70730383D01*
X124921111Y-70712639D01*
X124903367Y-70693060D01*
X124887627Y-70671837D01*
X124874043Y-70649174D01*
X124862745Y-70625288D01*
X124853844Y-70600409D01*
X124847424Y-70574778D01*
X124843547Y-70548641D01*
X124842250Y-70522250D01*
X124842250Y-69558750D01*
X124843547Y-69532359D01*
X124847424Y-69506222D01*
X124853844Y-69480591D01*
X124862745Y-69455712D01*
X124874043Y-69431826D01*
X124887627Y-69409163D01*
X124903367Y-69387940D01*
X124921111Y-69368361D01*
X124940690Y-69350617D01*
X124961913Y-69334877D01*
X124984576Y-69321293D01*
X125008462Y-69309995D01*
X125033341Y-69301094D01*
X125058972Y-69294674D01*
X125085109Y-69290797D01*
X125111500Y-69289500D01*
X125650000Y-69289500D01*
X125676391Y-69290797D01*
X125676391Y-69290797D01*
G37*
D19*
X125380750Y-70040500D03*
D18*
G36*
X123801391Y-69290797D02*
G01*
X123827528Y-69294674D01*
X123853159Y-69301094D01*
X123878038Y-69309995D01*
X123901924Y-69321293D01*
X123924587Y-69334877D01*
X123945810Y-69350617D01*
X123965389Y-69368361D01*
X123983133Y-69387940D01*
X123998873Y-69409163D01*
X124012457Y-69431826D01*
X124023755Y-69455712D01*
X124032656Y-69480591D01*
X124039076Y-69506222D01*
X124042953Y-69532359D01*
X124044250Y-69558750D01*
X124044250Y-70522250D01*
X124042953Y-70548641D01*
X124039076Y-70574778D01*
X124032656Y-70600409D01*
X124023755Y-70625288D01*
X124012457Y-70649174D01*
X123998873Y-70671837D01*
X123983133Y-70693060D01*
X123965389Y-70712639D01*
X123945810Y-70730383D01*
X123924587Y-70746123D01*
X123901924Y-70759707D01*
X123878038Y-70771005D01*
X123853159Y-70779906D01*
X123827528Y-70786326D01*
X123801391Y-70790203D01*
X123775000Y-70791500D01*
X123236500Y-70791500D01*
X123210109Y-70790203D01*
X123183972Y-70786326D01*
X123158341Y-70779906D01*
X123133462Y-70771005D01*
X123109576Y-70759707D01*
X123086913Y-70746123D01*
X123065690Y-70730383D01*
X123046111Y-70712639D01*
X123028367Y-70693060D01*
X123012627Y-70671837D01*
X122999043Y-70649174D01*
X122987745Y-70625288D01*
X122978844Y-70600409D01*
X122972424Y-70574778D01*
X122968547Y-70548641D01*
X122967250Y-70522250D01*
X122967250Y-69558750D01*
X122968547Y-69532359D01*
X122972424Y-69506222D01*
X122978844Y-69480591D01*
X122987745Y-69455712D01*
X122999043Y-69431826D01*
X123012627Y-69409163D01*
X123028367Y-69387940D01*
X123046111Y-69368361D01*
X123065690Y-69350617D01*
X123086913Y-69334877D01*
X123109576Y-69321293D01*
X123133462Y-69309995D01*
X123158341Y-69301094D01*
X123183972Y-69294674D01*
X123210109Y-69290797D01*
X123236500Y-69289500D01*
X123775000Y-69289500D01*
X123801391Y-69290797D01*
X123801391Y-69290797D01*
G37*
D19*
X123505750Y-70040500D03*
D18*
G36*
X109069391Y-69925797D02*
G01*
X109095528Y-69929674D01*
X109121159Y-69936094D01*
X109146038Y-69944995D01*
X109169924Y-69956293D01*
X109192587Y-69969877D01*
X109213810Y-69985617D01*
X109233389Y-70003361D01*
X109251133Y-70022940D01*
X109266873Y-70044163D01*
X109280457Y-70066826D01*
X109291755Y-70090712D01*
X109300656Y-70115591D01*
X109307076Y-70141222D01*
X109310953Y-70167359D01*
X109312250Y-70193750D01*
X109312250Y-71157250D01*
X109310953Y-71183641D01*
X109307076Y-71209778D01*
X109300656Y-71235409D01*
X109291755Y-71260288D01*
X109280457Y-71284174D01*
X109266873Y-71306837D01*
X109251133Y-71328060D01*
X109233389Y-71347639D01*
X109213810Y-71365383D01*
X109192587Y-71381123D01*
X109169924Y-71394707D01*
X109146038Y-71406005D01*
X109121159Y-71414906D01*
X109095528Y-71421326D01*
X109069391Y-71425203D01*
X109043000Y-71426500D01*
X108504500Y-71426500D01*
X108478109Y-71425203D01*
X108451972Y-71421326D01*
X108426341Y-71414906D01*
X108401462Y-71406005D01*
X108377576Y-71394707D01*
X108354913Y-71381123D01*
X108333690Y-71365383D01*
X108314111Y-71347639D01*
X108296367Y-71328060D01*
X108280627Y-71306837D01*
X108267043Y-71284174D01*
X108255745Y-71260288D01*
X108246844Y-71235409D01*
X108240424Y-71209778D01*
X108236547Y-71183641D01*
X108235250Y-71157250D01*
X108235250Y-70193750D01*
X108236547Y-70167359D01*
X108240424Y-70141222D01*
X108246844Y-70115591D01*
X108255745Y-70090712D01*
X108267043Y-70066826D01*
X108280627Y-70044163D01*
X108296367Y-70022940D01*
X108314111Y-70003361D01*
X108333690Y-69985617D01*
X108354913Y-69969877D01*
X108377576Y-69956293D01*
X108401462Y-69944995D01*
X108426341Y-69936094D01*
X108451972Y-69929674D01*
X108478109Y-69925797D01*
X108504500Y-69924500D01*
X109043000Y-69924500D01*
X109069391Y-69925797D01*
X109069391Y-69925797D01*
G37*
D19*
X108773750Y-70675500D03*
D18*
G36*
X110944391Y-69925797D02*
G01*
X110970528Y-69929674D01*
X110996159Y-69936094D01*
X111021038Y-69944995D01*
X111044924Y-69956293D01*
X111067587Y-69969877D01*
X111088810Y-69985617D01*
X111108389Y-70003361D01*
X111126133Y-70022940D01*
X111141873Y-70044163D01*
X111155457Y-70066826D01*
X111166755Y-70090712D01*
X111175656Y-70115591D01*
X111182076Y-70141222D01*
X111185953Y-70167359D01*
X111187250Y-70193750D01*
X111187250Y-71157250D01*
X111185953Y-71183641D01*
X111182076Y-71209778D01*
X111175656Y-71235409D01*
X111166755Y-71260288D01*
X111155457Y-71284174D01*
X111141873Y-71306837D01*
X111126133Y-71328060D01*
X111108389Y-71347639D01*
X111088810Y-71365383D01*
X111067587Y-71381123D01*
X111044924Y-71394707D01*
X111021038Y-71406005D01*
X110996159Y-71414906D01*
X110970528Y-71421326D01*
X110944391Y-71425203D01*
X110918000Y-71426500D01*
X110379500Y-71426500D01*
X110353109Y-71425203D01*
X110326972Y-71421326D01*
X110301341Y-71414906D01*
X110276462Y-71406005D01*
X110252576Y-71394707D01*
X110229913Y-71381123D01*
X110208690Y-71365383D01*
X110189111Y-71347639D01*
X110171367Y-71328060D01*
X110155627Y-71306837D01*
X110142043Y-71284174D01*
X110130745Y-71260288D01*
X110121844Y-71235409D01*
X110115424Y-71209778D01*
X110111547Y-71183641D01*
X110110250Y-71157250D01*
X110110250Y-70193750D01*
X110111547Y-70167359D01*
X110115424Y-70141222D01*
X110121844Y-70115591D01*
X110130745Y-70090712D01*
X110142043Y-70066826D01*
X110155627Y-70044163D01*
X110171367Y-70022940D01*
X110189111Y-70003361D01*
X110208690Y-69985617D01*
X110229913Y-69969877D01*
X110252576Y-69956293D01*
X110276462Y-69944995D01*
X110301341Y-69936094D01*
X110326972Y-69929674D01*
X110353109Y-69925797D01*
X110379500Y-69924500D01*
X110918000Y-69924500D01*
X110944391Y-69925797D01*
X110944391Y-69925797D01*
G37*
D19*
X110648750Y-70675500D03*
D18*
G36*
X125676391Y-59130797D02*
G01*
X125702528Y-59134674D01*
X125728159Y-59141094D01*
X125753038Y-59149995D01*
X125776924Y-59161293D01*
X125799587Y-59174877D01*
X125820810Y-59190617D01*
X125840389Y-59208361D01*
X125858133Y-59227940D01*
X125873873Y-59249163D01*
X125887457Y-59271826D01*
X125898755Y-59295712D01*
X125907656Y-59320591D01*
X125914076Y-59346222D01*
X125917953Y-59372359D01*
X125919250Y-59398750D01*
X125919250Y-60362250D01*
X125917953Y-60388641D01*
X125914076Y-60414778D01*
X125907656Y-60440409D01*
X125898755Y-60465288D01*
X125887457Y-60489174D01*
X125873873Y-60511837D01*
X125858133Y-60533060D01*
X125840389Y-60552639D01*
X125820810Y-60570383D01*
X125799587Y-60586123D01*
X125776924Y-60599707D01*
X125753038Y-60611005D01*
X125728159Y-60619906D01*
X125702528Y-60626326D01*
X125676391Y-60630203D01*
X125650000Y-60631500D01*
X125111500Y-60631500D01*
X125085109Y-60630203D01*
X125058972Y-60626326D01*
X125033341Y-60619906D01*
X125008462Y-60611005D01*
X124984576Y-60599707D01*
X124961913Y-60586123D01*
X124940690Y-60570383D01*
X124921111Y-60552639D01*
X124903367Y-60533060D01*
X124887627Y-60511837D01*
X124874043Y-60489174D01*
X124862745Y-60465288D01*
X124853844Y-60440409D01*
X124847424Y-60414778D01*
X124843547Y-60388641D01*
X124842250Y-60362250D01*
X124842250Y-59398750D01*
X124843547Y-59372359D01*
X124847424Y-59346222D01*
X124853844Y-59320591D01*
X124862745Y-59295712D01*
X124874043Y-59271826D01*
X124887627Y-59249163D01*
X124903367Y-59227940D01*
X124921111Y-59208361D01*
X124940690Y-59190617D01*
X124961913Y-59174877D01*
X124984576Y-59161293D01*
X125008462Y-59149995D01*
X125033341Y-59141094D01*
X125058972Y-59134674D01*
X125085109Y-59130797D01*
X125111500Y-59129500D01*
X125650000Y-59129500D01*
X125676391Y-59130797D01*
X125676391Y-59130797D01*
G37*
D19*
X125380750Y-59880500D03*
D18*
G36*
X123801391Y-59130797D02*
G01*
X123827528Y-59134674D01*
X123853159Y-59141094D01*
X123878038Y-59149995D01*
X123901924Y-59161293D01*
X123924587Y-59174877D01*
X123945810Y-59190617D01*
X123965389Y-59208361D01*
X123983133Y-59227940D01*
X123998873Y-59249163D01*
X124012457Y-59271826D01*
X124023755Y-59295712D01*
X124032656Y-59320591D01*
X124039076Y-59346222D01*
X124042953Y-59372359D01*
X124044250Y-59398750D01*
X124044250Y-60362250D01*
X124042953Y-60388641D01*
X124039076Y-60414778D01*
X124032656Y-60440409D01*
X124023755Y-60465288D01*
X124012457Y-60489174D01*
X123998873Y-60511837D01*
X123983133Y-60533060D01*
X123965389Y-60552639D01*
X123945810Y-60570383D01*
X123924587Y-60586123D01*
X123901924Y-60599707D01*
X123878038Y-60611005D01*
X123853159Y-60619906D01*
X123827528Y-60626326D01*
X123801391Y-60630203D01*
X123775000Y-60631500D01*
X123236500Y-60631500D01*
X123210109Y-60630203D01*
X123183972Y-60626326D01*
X123158341Y-60619906D01*
X123133462Y-60611005D01*
X123109576Y-60599707D01*
X123086913Y-60586123D01*
X123065690Y-60570383D01*
X123046111Y-60552639D01*
X123028367Y-60533060D01*
X123012627Y-60511837D01*
X122999043Y-60489174D01*
X122987745Y-60465288D01*
X122978844Y-60440409D01*
X122972424Y-60414778D01*
X122968547Y-60388641D01*
X122967250Y-60362250D01*
X122967250Y-59398750D01*
X122968547Y-59372359D01*
X122972424Y-59346222D01*
X122978844Y-59320591D01*
X122987745Y-59295712D01*
X122999043Y-59271826D01*
X123012627Y-59249163D01*
X123028367Y-59227940D01*
X123046111Y-59208361D01*
X123065690Y-59190617D01*
X123086913Y-59174877D01*
X123109576Y-59161293D01*
X123133462Y-59149995D01*
X123158341Y-59141094D01*
X123183972Y-59134674D01*
X123210109Y-59130797D01*
X123236500Y-59129500D01*
X123775000Y-59129500D01*
X123801391Y-59130797D01*
X123801391Y-59130797D01*
G37*
D19*
X123505750Y-59880500D03*
D18*
G36*
X125676391Y-65861797D02*
G01*
X125702528Y-65865674D01*
X125728159Y-65872094D01*
X125753038Y-65880995D01*
X125776924Y-65892293D01*
X125799587Y-65905877D01*
X125820810Y-65921617D01*
X125840389Y-65939361D01*
X125858133Y-65958940D01*
X125873873Y-65980163D01*
X125887457Y-66002826D01*
X125898755Y-66026712D01*
X125907656Y-66051591D01*
X125914076Y-66077222D01*
X125917953Y-66103359D01*
X125919250Y-66129750D01*
X125919250Y-67093250D01*
X125917953Y-67119641D01*
X125914076Y-67145778D01*
X125907656Y-67171409D01*
X125898755Y-67196288D01*
X125887457Y-67220174D01*
X125873873Y-67242837D01*
X125858133Y-67264060D01*
X125840389Y-67283639D01*
X125820810Y-67301383D01*
X125799587Y-67317123D01*
X125776924Y-67330707D01*
X125753038Y-67342005D01*
X125728159Y-67350906D01*
X125702528Y-67357326D01*
X125676391Y-67361203D01*
X125650000Y-67362500D01*
X125111500Y-67362500D01*
X125085109Y-67361203D01*
X125058972Y-67357326D01*
X125033341Y-67350906D01*
X125008462Y-67342005D01*
X124984576Y-67330707D01*
X124961913Y-67317123D01*
X124940690Y-67301383D01*
X124921111Y-67283639D01*
X124903367Y-67264060D01*
X124887627Y-67242837D01*
X124874043Y-67220174D01*
X124862745Y-67196288D01*
X124853844Y-67171409D01*
X124847424Y-67145778D01*
X124843547Y-67119641D01*
X124842250Y-67093250D01*
X124842250Y-66129750D01*
X124843547Y-66103359D01*
X124847424Y-66077222D01*
X124853844Y-66051591D01*
X124862745Y-66026712D01*
X124874043Y-66002826D01*
X124887627Y-65980163D01*
X124903367Y-65958940D01*
X124921111Y-65939361D01*
X124940690Y-65921617D01*
X124961913Y-65905877D01*
X124984576Y-65892293D01*
X125008462Y-65880995D01*
X125033341Y-65872094D01*
X125058972Y-65865674D01*
X125085109Y-65861797D01*
X125111500Y-65860500D01*
X125650000Y-65860500D01*
X125676391Y-65861797D01*
X125676391Y-65861797D01*
G37*
D19*
X125380750Y-66611500D03*
D18*
G36*
X123801391Y-65861797D02*
G01*
X123827528Y-65865674D01*
X123853159Y-65872094D01*
X123878038Y-65880995D01*
X123901924Y-65892293D01*
X123924587Y-65905877D01*
X123945810Y-65921617D01*
X123965389Y-65939361D01*
X123983133Y-65958940D01*
X123998873Y-65980163D01*
X124012457Y-66002826D01*
X124023755Y-66026712D01*
X124032656Y-66051591D01*
X124039076Y-66077222D01*
X124042953Y-66103359D01*
X124044250Y-66129750D01*
X124044250Y-67093250D01*
X124042953Y-67119641D01*
X124039076Y-67145778D01*
X124032656Y-67171409D01*
X124023755Y-67196288D01*
X124012457Y-67220174D01*
X123998873Y-67242837D01*
X123983133Y-67264060D01*
X123965389Y-67283639D01*
X123945810Y-67301383D01*
X123924587Y-67317123D01*
X123901924Y-67330707D01*
X123878038Y-67342005D01*
X123853159Y-67350906D01*
X123827528Y-67357326D01*
X123801391Y-67361203D01*
X123775000Y-67362500D01*
X123236500Y-67362500D01*
X123210109Y-67361203D01*
X123183972Y-67357326D01*
X123158341Y-67350906D01*
X123133462Y-67342005D01*
X123109576Y-67330707D01*
X123086913Y-67317123D01*
X123065690Y-67301383D01*
X123046111Y-67283639D01*
X123028367Y-67264060D01*
X123012627Y-67242837D01*
X122999043Y-67220174D01*
X122987745Y-67196288D01*
X122978844Y-67171409D01*
X122972424Y-67145778D01*
X122968547Y-67119641D01*
X122967250Y-67093250D01*
X122967250Y-66129750D01*
X122968547Y-66103359D01*
X122972424Y-66077222D01*
X122978844Y-66051591D01*
X122987745Y-66026712D01*
X122999043Y-66002826D01*
X123012627Y-65980163D01*
X123028367Y-65958940D01*
X123046111Y-65939361D01*
X123065690Y-65921617D01*
X123086913Y-65905877D01*
X123109576Y-65892293D01*
X123133462Y-65880995D01*
X123158341Y-65872094D01*
X123183972Y-65865674D01*
X123210109Y-65861797D01*
X123236500Y-65860500D01*
X123775000Y-65860500D01*
X123801391Y-65861797D01*
X123801391Y-65861797D01*
G37*
D19*
X123505750Y-66611500D03*
D18*
G36*
X117849141Y-59892797D02*
G01*
X117875278Y-59896674D01*
X117900909Y-59903094D01*
X117925788Y-59911995D01*
X117949674Y-59923293D01*
X117972337Y-59936877D01*
X117993560Y-59952617D01*
X118013139Y-59970361D01*
X118030883Y-59989940D01*
X118046623Y-60011163D01*
X118060207Y-60033826D01*
X118071505Y-60057712D01*
X118080406Y-60082591D01*
X118086826Y-60108222D01*
X118090703Y-60134359D01*
X118092000Y-60160750D01*
X118092000Y-61124250D01*
X118090703Y-61150641D01*
X118086826Y-61176778D01*
X118080406Y-61202409D01*
X118071505Y-61227288D01*
X118060207Y-61251174D01*
X118046623Y-61273837D01*
X118030883Y-61295060D01*
X118013139Y-61314639D01*
X117993560Y-61332383D01*
X117972337Y-61348123D01*
X117949674Y-61361707D01*
X117925788Y-61373005D01*
X117900909Y-61381906D01*
X117875278Y-61388326D01*
X117849141Y-61392203D01*
X117822750Y-61393500D01*
X117284250Y-61393500D01*
X117257859Y-61392203D01*
X117231722Y-61388326D01*
X117206091Y-61381906D01*
X117181212Y-61373005D01*
X117157326Y-61361707D01*
X117134663Y-61348123D01*
X117113440Y-61332383D01*
X117093861Y-61314639D01*
X117076117Y-61295060D01*
X117060377Y-61273837D01*
X117046793Y-61251174D01*
X117035495Y-61227288D01*
X117026594Y-61202409D01*
X117020174Y-61176778D01*
X117016297Y-61150641D01*
X117015000Y-61124250D01*
X117015000Y-60160750D01*
X117016297Y-60134359D01*
X117020174Y-60108222D01*
X117026594Y-60082591D01*
X117035495Y-60057712D01*
X117046793Y-60033826D01*
X117060377Y-60011163D01*
X117076117Y-59989940D01*
X117093861Y-59970361D01*
X117113440Y-59952617D01*
X117134663Y-59936877D01*
X117157326Y-59923293D01*
X117181212Y-59911995D01*
X117206091Y-59903094D01*
X117231722Y-59896674D01*
X117257859Y-59892797D01*
X117284250Y-59891500D01*
X117822750Y-59891500D01*
X117849141Y-59892797D01*
X117849141Y-59892797D01*
G37*
D19*
X117553500Y-60642500D03*
D18*
G36*
X119724141Y-59892797D02*
G01*
X119750278Y-59896674D01*
X119775909Y-59903094D01*
X119800788Y-59911995D01*
X119824674Y-59923293D01*
X119847337Y-59936877D01*
X119868560Y-59952617D01*
X119888139Y-59970361D01*
X119905883Y-59989940D01*
X119921623Y-60011163D01*
X119935207Y-60033826D01*
X119946505Y-60057712D01*
X119955406Y-60082591D01*
X119961826Y-60108222D01*
X119965703Y-60134359D01*
X119967000Y-60160750D01*
X119967000Y-61124250D01*
X119965703Y-61150641D01*
X119961826Y-61176778D01*
X119955406Y-61202409D01*
X119946505Y-61227288D01*
X119935207Y-61251174D01*
X119921623Y-61273837D01*
X119905883Y-61295060D01*
X119888139Y-61314639D01*
X119868560Y-61332383D01*
X119847337Y-61348123D01*
X119824674Y-61361707D01*
X119800788Y-61373005D01*
X119775909Y-61381906D01*
X119750278Y-61388326D01*
X119724141Y-61392203D01*
X119697750Y-61393500D01*
X119159250Y-61393500D01*
X119132859Y-61392203D01*
X119106722Y-61388326D01*
X119081091Y-61381906D01*
X119056212Y-61373005D01*
X119032326Y-61361707D01*
X119009663Y-61348123D01*
X118988440Y-61332383D01*
X118968861Y-61314639D01*
X118951117Y-61295060D01*
X118935377Y-61273837D01*
X118921793Y-61251174D01*
X118910495Y-61227288D01*
X118901594Y-61202409D01*
X118895174Y-61176778D01*
X118891297Y-61150641D01*
X118890000Y-61124250D01*
X118890000Y-60160750D01*
X118891297Y-60134359D01*
X118895174Y-60108222D01*
X118901594Y-60082591D01*
X118910495Y-60057712D01*
X118921793Y-60033826D01*
X118935377Y-60011163D01*
X118951117Y-59989940D01*
X118968861Y-59970361D01*
X118988440Y-59952617D01*
X119009663Y-59936877D01*
X119032326Y-59923293D01*
X119056212Y-59911995D01*
X119081091Y-59903094D01*
X119106722Y-59896674D01*
X119132859Y-59892797D01*
X119159250Y-59891500D01*
X119697750Y-59891500D01*
X119724141Y-59892797D01*
X119724141Y-59892797D01*
G37*
D19*
X119428500Y-60642500D03*
D18*
G36*
X119707391Y-68655797D02*
G01*
X119733528Y-68659674D01*
X119759159Y-68666094D01*
X119784038Y-68674995D01*
X119807924Y-68686293D01*
X119830587Y-68699877D01*
X119851810Y-68715617D01*
X119871389Y-68733361D01*
X119889133Y-68752940D01*
X119904873Y-68774163D01*
X119918457Y-68796826D01*
X119929755Y-68820712D01*
X119938656Y-68845591D01*
X119945076Y-68871222D01*
X119948953Y-68897359D01*
X119950250Y-68923750D01*
X119950250Y-69887250D01*
X119948953Y-69913641D01*
X119945076Y-69939778D01*
X119938656Y-69965409D01*
X119929755Y-69990288D01*
X119918457Y-70014174D01*
X119904873Y-70036837D01*
X119889133Y-70058060D01*
X119871389Y-70077639D01*
X119851810Y-70095383D01*
X119830587Y-70111123D01*
X119807924Y-70124707D01*
X119784038Y-70136005D01*
X119759159Y-70144906D01*
X119733528Y-70151326D01*
X119707391Y-70155203D01*
X119681000Y-70156500D01*
X119142500Y-70156500D01*
X119116109Y-70155203D01*
X119089972Y-70151326D01*
X119064341Y-70144906D01*
X119039462Y-70136005D01*
X119015576Y-70124707D01*
X118992913Y-70111123D01*
X118971690Y-70095383D01*
X118952111Y-70077639D01*
X118934367Y-70058060D01*
X118918627Y-70036837D01*
X118905043Y-70014174D01*
X118893745Y-69990288D01*
X118884844Y-69965409D01*
X118878424Y-69939778D01*
X118874547Y-69913641D01*
X118873250Y-69887250D01*
X118873250Y-68923750D01*
X118874547Y-68897359D01*
X118878424Y-68871222D01*
X118884844Y-68845591D01*
X118893745Y-68820712D01*
X118905043Y-68796826D01*
X118918627Y-68774163D01*
X118934367Y-68752940D01*
X118952111Y-68733361D01*
X118971690Y-68715617D01*
X118992913Y-68699877D01*
X119015576Y-68686293D01*
X119039462Y-68674995D01*
X119064341Y-68666094D01*
X119089972Y-68659674D01*
X119116109Y-68655797D01*
X119142500Y-68654500D01*
X119681000Y-68654500D01*
X119707391Y-68655797D01*
X119707391Y-68655797D01*
G37*
D19*
X119411750Y-69405500D03*
D18*
G36*
X117832391Y-68655797D02*
G01*
X117858528Y-68659674D01*
X117884159Y-68666094D01*
X117909038Y-68674995D01*
X117932924Y-68686293D01*
X117955587Y-68699877D01*
X117976810Y-68715617D01*
X117996389Y-68733361D01*
X118014133Y-68752940D01*
X118029873Y-68774163D01*
X118043457Y-68796826D01*
X118054755Y-68820712D01*
X118063656Y-68845591D01*
X118070076Y-68871222D01*
X118073953Y-68897359D01*
X118075250Y-68923750D01*
X118075250Y-69887250D01*
X118073953Y-69913641D01*
X118070076Y-69939778D01*
X118063656Y-69965409D01*
X118054755Y-69990288D01*
X118043457Y-70014174D01*
X118029873Y-70036837D01*
X118014133Y-70058060D01*
X117996389Y-70077639D01*
X117976810Y-70095383D01*
X117955587Y-70111123D01*
X117932924Y-70124707D01*
X117909038Y-70136005D01*
X117884159Y-70144906D01*
X117858528Y-70151326D01*
X117832391Y-70155203D01*
X117806000Y-70156500D01*
X117267500Y-70156500D01*
X117241109Y-70155203D01*
X117214972Y-70151326D01*
X117189341Y-70144906D01*
X117164462Y-70136005D01*
X117140576Y-70124707D01*
X117117913Y-70111123D01*
X117096690Y-70095383D01*
X117077111Y-70077639D01*
X117059367Y-70058060D01*
X117043627Y-70036837D01*
X117030043Y-70014174D01*
X117018745Y-69990288D01*
X117009844Y-69965409D01*
X117003424Y-69939778D01*
X116999547Y-69913641D01*
X116998250Y-69887250D01*
X116998250Y-68923750D01*
X116999547Y-68897359D01*
X117003424Y-68871222D01*
X117009844Y-68845591D01*
X117018745Y-68820712D01*
X117030043Y-68796826D01*
X117043627Y-68774163D01*
X117059367Y-68752940D01*
X117077111Y-68733361D01*
X117096690Y-68715617D01*
X117117913Y-68699877D01*
X117140576Y-68686293D01*
X117164462Y-68674995D01*
X117189341Y-68666094D01*
X117214972Y-68659674D01*
X117241109Y-68655797D01*
X117267500Y-68654500D01*
X117806000Y-68654500D01*
X117832391Y-68655797D01*
X117832391Y-68655797D01*
G37*
D19*
X117536750Y-69405500D03*
D18*
G36*
X125676391Y-62559797D02*
G01*
X125702528Y-62563674D01*
X125728159Y-62570094D01*
X125753038Y-62578995D01*
X125776924Y-62590293D01*
X125799587Y-62603877D01*
X125820810Y-62619617D01*
X125840389Y-62637361D01*
X125858133Y-62656940D01*
X125873873Y-62678163D01*
X125887457Y-62700826D01*
X125898755Y-62724712D01*
X125907656Y-62749591D01*
X125914076Y-62775222D01*
X125917953Y-62801359D01*
X125919250Y-62827750D01*
X125919250Y-63791250D01*
X125917953Y-63817641D01*
X125914076Y-63843778D01*
X125907656Y-63869409D01*
X125898755Y-63894288D01*
X125887457Y-63918174D01*
X125873873Y-63940837D01*
X125858133Y-63962060D01*
X125840389Y-63981639D01*
X125820810Y-63999383D01*
X125799587Y-64015123D01*
X125776924Y-64028707D01*
X125753038Y-64040005D01*
X125728159Y-64048906D01*
X125702528Y-64055326D01*
X125676391Y-64059203D01*
X125650000Y-64060500D01*
X125111500Y-64060500D01*
X125085109Y-64059203D01*
X125058972Y-64055326D01*
X125033341Y-64048906D01*
X125008462Y-64040005D01*
X124984576Y-64028707D01*
X124961913Y-64015123D01*
X124940690Y-63999383D01*
X124921111Y-63981639D01*
X124903367Y-63962060D01*
X124887627Y-63940837D01*
X124874043Y-63918174D01*
X124862745Y-63894288D01*
X124853844Y-63869409D01*
X124847424Y-63843778D01*
X124843547Y-63817641D01*
X124842250Y-63791250D01*
X124842250Y-62827750D01*
X124843547Y-62801359D01*
X124847424Y-62775222D01*
X124853844Y-62749591D01*
X124862745Y-62724712D01*
X124874043Y-62700826D01*
X124887627Y-62678163D01*
X124903367Y-62656940D01*
X124921111Y-62637361D01*
X124940690Y-62619617D01*
X124961913Y-62603877D01*
X124984576Y-62590293D01*
X125008462Y-62578995D01*
X125033341Y-62570094D01*
X125058972Y-62563674D01*
X125085109Y-62559797D01*
X125111500Y-62558500D01*
X125650000Y-62558500D01*
X125676391Y-62559797D01*
X125676391Y-62559797D01*
G37*
D19*
X125380750Y-63309500D03*
D18*
G36*
X123801391Y-62559797D02*
G01*
X123827528Y-62563674D01*
X123853159Y-62570094D01*
X123878038Y-62578995D01*
X123901924Y-62590293D01*
X123924587Y-62603877D01*
X123945810Y-62619617D01*
X123965389Y-62637361D01*
X123983133Y-62656940D01*
X123998873Y-62678163D01*
X124012457Y-62700826D01*
X124023755Y-62724712D01*
X124032656Y-62749591D01*
X124039076Y-62775222D01*
X124042953Y-62801359D01*
X124044250Y-62827750D01*
X124044250Y-63791250D01*
X124042953Y-63817641D01*
X124039076Y-63843778D01*
X124032656Y-63869409D01*
X124023755Y-63894288D01*
X124012457Y-63918174D01*
X123998873Y-63940837D01*
X123983133Y-63962060D01*
X123965389Y-63981639D01*
X123945810Y-63999383D01*
X123924587Y-64015123D01*
X123901924Y-64028707D01*
X123878038Y-64040005D01*
X123853159Y-64048906D01*
X123827528Y-64055326D01*
X123801391Y-64059203D01*
X123775000Y-64060500D01*
X123236500Y-64060500D01*
X123210109Y-64059203D01*
X123183972Y-64055326D01*
X123158341Y-64048906D01*
X123133462Y-64040005D01*
X123109576Y-64028707D01*
X123086913Y-64015123D01*
X123065690Y-63999383D01*
X123046111Y-63981639D01*
X123028367Y-63962060D01*
X123012627Y-63940837D01*
X122999043Y-63918174D01*
X122987745Y-63894288D01*
X122978844Y-63869409D01*
X122972424Y-63843778D01*
X122968547Y-63817641D01*
X122967250Y-63791250D01*
X122967250Y-62827750D01*
X122968547Y-62801359D01*
X122972424Y-62775222D01*
X122978844Y-62749591D01*
X122987745Y-62724712D01*
X122999043Y-62700826D01*
X123012627Y-62678163D01*
X123028367Y-62656940D01*
X123046111Y-62637361D01*
X123065690Y-62619617D01*
X123086913Y-62603877D01*
X123109576Y-62590293D01*
X123133462Y-62578995D01*
X123158341Y-62570094D01*
X123183972Y-62563674D01*
X123210109Y-62559797D01*
X123236500Y-62558500D01*
X123775000Y-62558500D01*
X123801391Y-62559797D01*
X123801391Y-62559797D01*
G37*
D19*
X123505750Y-63309500D03*
M02*
