M48
; DRILL file {KiCad (5.1.2)-2} date 8/6/2019 1:22:49 PM
; FORMAT={-:-/ absolute / inch / decimal}
; #@! TF.CreationDate,2019-08-06T13:22:49-07:00
; #@! TF.GenerationSoftware,Kicad,Pcbnew,(5.1.2)-2
; #@! TF.FileFunction,NonPlated,1,2,NPTH
FMAT,2
INCH
T1C0.0689
T2C0.1570
%
G90
G05
T1
X4.1662Y-4.0325
X3.4162Y-4.7825
X3.7662Y-3.2825
X3.0162Y-3.2825
X3.4162Y-3.2825
X4.5163Y-4.0325
X4.9162Y-4.0325
X4.5163Y-4.7825
X4.9162Y-4.7825
X3.7662Y-4.0325
X3.0162Y-4.7825
X4.5163Y-3.2825
X4.9162Y-3.2825
X3.7662Y-4.7825
X4.1662Y-4.7825
X4.1662Y-3.2825
X3.0162Y-4.0325
X3.4162Y-4.0325
T2
X3.9663Y-4.0325
X3.2163Y-4.7825
X4.7162Y-3.2825
X3.9663Y-4.7825
X3.9663Y-3.2825
X3.2163Y-4.0325
X3.2163Y-3.2825
X4.7162Y-4.0325
X4.7162Y-4.7825
T0
M30
